<?xml version="1.0" encoding="UTF-8"?>
<svg id="Layer_1" xmlns="http://www.w3.org/2000/svg" version="1.1" viewBox="0 0 1366 1024">
  <!-- Generator: Adobe Illustrator 29.7.1, SVG Export Plug-In . SVG Version: 2.1.1 Build 8)  -->
  <path d="M688.15,689.33c-3.74-25.52-3.22-50.54-1.93-75.59,1.56-30.24,8.3-59.89,10.19-90.09,1.63-26.1-2.92-51.79-5.83-77.51-3.77-33.32-5.47-66.67-5.18-100.16.09-10.71.13-21.42.03-32.12-.02-2.27,1.14-5.14-2.1-6.62-3.53,1.02-2.33,4.01-2.34,6.21-.1,11.61-.17,23.22.05,34.83.81,42.21-2.73,84.14-8.72,125.86-4.35,30.29-2.78,60.23,2.14,90.33,5.29,32.37,7.95,65.08,6.16,97.92-1.38,25.29-6.29,50.09-12.7,74.56-2.23,8.52-3.3,17.14-1.82,25.69,3.07,17.76-.64,33.95-10,48.99-2.64,4.24-3.11,8.07-1.56,12.85,4.78,14.74,4.95,29.6-.85,44.14-12.17,30.54-21.75,61.5-23.81,94.8-1.22,19.73-11.12,35.96-30.4,44.58-11.19,5-22.49,5.46-33.75.42-3.13-1.4-5.83-1.39-9.13-.46-9.76,2.75-19.4,2.71-28.06-3.55-2.44-1.77-5.03-1.91-7.78-1.77-9.42.48-17.57-2.09-23.5-9.87-1.17-1.53-2.63-2.53-4.47-2.91-18.56-3.86-24.72-21.35-21.24-39.89,3.24-17.29,12.68-31.54,23.65-44.85,8.16-9.9,15.52-20.25,19.4-32.68.75-2.41,1.47-4.57-.49-7-9.64-11.98-10.43-25.37-5.31-39.28,2.02-5.49,1.32-9.59-2.22-14.4-11.47-15.53-14.06-33.31-10.78-51.94,1.19-6.78.29-13.15-1.28-19.53-8.37-34.16-14.29-68.58-12.75-103.98,1.4-32.18,6.95-63.69,14.35-94.93,4.46-18.81,9.04-37.59,13.44-56.41,4.67-20,3.18-39.82-2.38-59.39-9.57-33.71-19.67-67.28-26-101.8-8.45-46.12-12.42-92.48-6.06-139.23,5.02-36.86,17.22-71.55,32.47-105.31,8.44-18.69,15.77-37.8,19.82-58.03,1.35-6.72,6.02-10.04,11.52-8.89,5.57,1.16,8.22,5.78,6.78,12.79-3.91,19.03-10.22,37.29-18.17,55-3.56,7.94-3.47,8.17,4.49,11.37,25.1,10.11,51.34,15.5,78.06,19,41.5,5.44,83.15,5.66,124.75,2.47,34.1-2.62,67.76-8.38,99.75-21.32,8.4-3.4,8.36-3.61,4.8-11.81-7.73-17.81-13.69-36.19-17.8-55.15-1.35-6.24,1.42-11.16,6.58-12.38,5.21-1.23,10.38,1.77,11.59,7.95,6.22,31.6,20.94,60.07,32.44,89.73,11.51,29.68,18.15,60.38,20.69,92.16,4.76,59.6-4.61,117.47-19.86,174.72-3.51,13.19-6.78,26.49-11.18,39.39-9.91,29.05-9.35,57.83-1.17,87.22,9.2,33.07,16.53,66.62,20.86,100.74,5.45,42.95,2.88,85.37-8.41,127.23-3.04,11.26-4.4,22.5-2.7,34.38,2.52,17.62-2.11,33.92-12.95,48.21-2.42,3.2-3.26,6.05-1.62,9.99,5.91,14.21,5.47,27.98-3.89,40.8-2.16,2.96-1.64,5.88-.57,9.06,4.05,12.12,11.32,22.25,19.38,31.93,10.31,12.38,18.77,25.74,22.5,41.69,1.67,7.17,2.65,14.31.54,21.57-1.48,5.1-2.97,11.34-7.56,13.36-14.88,6.57-25.42,22.78-44.39,20.23-2.14-.29-3.93.72-5.67,1.93-8.08,5.63-16.97,6.14-26.12,3.56-3.91-1.1-7.19-.91-11.06.76-21.64,9.29-48.31-3.12-58.36-26.68-4.46-10.45-5.8-21.39-6.39-32.62-1.15-21.61-7.86-41.95-15.26-62.07-2.36-6.41-4.86-12.76-7.19-19.18-5.42-14.9-5.15-29.92-.29-44.85,1.39-4.27,1.14-7.7-1.42-11.5-10.6-15.75-13.04-33.23-10.08-51.66,1.87-11.67-1.89-22.57-4.54-33.57-2.93-12.18-5.22-24.46-7.34-37.4M636.87,267.18c-36.15-42.23-81.79-68.96-135.3-82.85-5.06-1.31-7.38-.13-8.2,5.54-4.57,31.82-3.18,63.61.57,95.32,4.45,37.58,13.35,74.24,23.93,110.54,6.04,20.71,12.46,41.38,12.7,63.35.26,24.3-7.19,47.12-12.88,70.25-7.84,31.87-14.7,63.9-17.05,96.66-2.47,34.53.53,68.67,9.59,102.2,3.41,12.62,4.89,25.3,2.72,38.48-1.89,11.46-.13,22.6,6.63,32.7,5.3,7.92,12.33,13.21,21.09,16.57,4.27,1.64,7.04,4.69,5.62,9.51-1.44,4.89-5.4,6.46-10.22,5.95-1.34-.14-2.74-.5-3.92-1.11-4.74-2.44-6.63-.02-7.66,4.22-2.09,8.58-.95,16.13,6.11,22.34,6.4,5.63,6.74,8.82,2.78,15.98-.76,1.38-1.4,2.85-1.88,4.35-4.25,13.19-11.1,24.9-20.01,35.47-7.21,8.55-13.78,17.56-18.57,27.74-3.33,7.09-5.67,14.41-4.87,22.4.37,3.72,1.26,7.08,5.55,8.16,2.37-2.53,2.49-5.63,3.59-8.32,1.12-2.74,2.17-5.52,3.54-8.13,2.34-4.49,5.77-7.39,11.04-4.93,5.1,2.38,5.53,6.51,3.61,11.51-1.95,5.09-3.63,10.31-4.95,15.6-1.14,4.56,1.21,7.48,5.68,8.49,4.79,1.08,5.9-2.25,6.4-5.88.79-5.72,2.84-11.02,5.33-16.15,2.27-4.66,6.03-7.23,11.11-4.85,4.62,2.17,5.49,6.24,3.66,11-1.79,4.66-3.73,9.3-4.07,14.39-.31,4.6.57,8.25,6.17,8.62,5.22.35,8.18-1.46,8.21-7.27.04-6.01,2.24-11.64,4.71-17,2.16-4.68,6.14-6.93,11.23-4.65,4.67,2.09,5.95,5.93,4.17,10.79-.94,2.56-1.94,5.13-2.55,7.78-1.76,7.6,1.01,11.32,8.73,11.9,10.41.77,18.74-3.31,24.88-11.53,5.73-7.66,8.54-16.45,9.11-26.04,1.09-18.21,3.7-36.14,9.33-53.62,3.24-10.08,9.18-19.43,8.67-30.64-.07-1.53,1.45-3.27,2.52-4.7,8.84-11.84,7.61-24.47,3.47-38.14-5.32,2.08-10.28,2.58-12.75-3.01-2.59-5.86,1.63-9.03,5.64-12.41,15.63-13.17,21.49-30.23,18.21-50.14-1.52-9.25-.97-18.13,1.23-27.03,7.06-28.53,12.75-57.16,13.07-86.8.37-34.78-4.37-68.98-9.29-103.22-2.86-19.88-3.82-39.78-.95-59.81,2.68-18.67,5.12-37.4,6.97-56.17,3.08-31.3,3.56-62.72,3.33-94.16-.28-38.95-.12-38.95-25.78-69.24M837.78,485.54c-4.22-20.95-2.67-41.56,2.94-62.11,7.97-29.17,16.81-58.11,23.22-87.71,9.78-45.21,14.12-90.75,10.04-136.93-.45-5.08-.41-10.34-2.23-15.11-2.74-.62-4.9.15-7.09.72-59.51,15.6-108.48,46.87-145.96,96.21-9.75,12.84-15.53,25.35-15.34,42,.42,37.33.49,74.59,4.32,111.8,2.3,22.4,6.02,44.63,7.22,67.15,1.5,28.22-3.8,55.77-7.57,83.47-6.22,45.71-6.17,91.13,5.38,136.12,4.13,16.09,6.98,31.84,4.24,49.02-3.85,24.13,10.23,41.38,33.95,45.9,2.9.55,5.86.78,8.74,1.39,4.25.9,7.16,3.46,6.98,7.96-.19,4.53-3.35,6.87-7.65,7.29-2.46.24-4.98-.28-7.47-.36-7.52-.23-14.58-3.17-22.71-4.2-4.1,13.53-5.59,26.39,3.09,38.56,1.75,2.45,3.62,4.88,3.36,8-.46,5.45,1.51,10.3,3.3,15.21,3.27,8.98,6.17,18.06,8.63,27.31,4.01,15.09,3.44,30.73,6.17,45.92,2.35,13.12,8.5,24.19,21.76,29.31,6.03,2.33,13.11,3.47,18.15-1.32,4.57-4.35,1.38-10.24-.3-15.38-.07-.22-.18-.42-.27-.63-2.11-5.08-1.69-9.51,3.78-12.07,4.47-2.09,9.31.52,11.9,6.14,2.51,5.43,3.89,11.19,4.4,17.1.46,5.26,3.62,6.3,8.02,5.92,4.7-.4,6.05-3.48,5.91-7.6-.19-5.57-2.21-10.65-4.23-15.74-1.87-4.72-.78-8.69,4.03-10.79,4.85-2.13,8.41.05,10.73,4.4,3.13,5.86,5.38,12.1,6.21,18.69.56,4.43,3.21,4.6,6.31,3.64,4.43-1.37,6.07-4.81,4.95-9.13-1.2-4.61-2.71-9.17-4.52-13.58-2.15-5.25-2.56-9.84,3.32-12.75,4.72-2.33,8.97.33,12.01,6.77,2.28,4.84,2.93,10.4,6.46,15.18,5.18-3.62,6.53-8.29,5.59-13.79-2.24-13.09-7.98-24.6-16.08-35.01-10.76-13.84-22.07-27.35-27.41-44.53-.98-3.14-3.35-3.73-6.34-4.02-8.16-.79-16.28-1.75-24.51-1.38-5.08.23-8.57-2.32-9.12-7.29-.59-5.24,3.12-7.72,7.74-8.77,4.95-1.12,9.95-.63,14.96-.2,4.76.41,9.57,1.02,14.3.68,7.77-.56,11.85-8.8,10.32-19.9-.99-7.18-1.56-7.46-11.64-5.72-4.99.86-9.49-.05-11.07-5.38-1.6-5.4,1.59-8.73,6.54-10.2,17.88-5.31,31.17-27.91,27.24-47.47-2.62-13.06-1.19-25.77,2.34-38.43,13.78-49.42,13.76-99.23,4.54-149.4-5.8-31.58-14.38-62.51-21.57-94.97M801.28,187.16c21.28-10.47,43.75-17.73,67.24-23.74-3.97-20.29-10.28-38.98-17.72-55.87-112.2,36.37-222.73,36.05-334.64.06-7.87,16.78-13.56,35.77-17.88,54.97,2.48,2.57,5.38,2.55,7.96,3.19,69.76,17.35,124.74,55.86,165.22,115.2,6.49,9.51,17.46,9.54,23.95.02,27.19-39.89,61.66-71.58,105.86-93.83h0Z"/>
  <path d="M1063.29,756.22c-18.04,13.74-33.46,14.27-51.9,2.06-11.88-7.86-18.4-7.82-29.97.17-16.94,11.71-32.79,11.45-49.13-.73-2.36-1.76-4.97-3.19-7.37-4.91-4.29-3.08-5.81-7.19-2.96-11.84,2.78-4.54,7.19-5.6,11.85-3.08,3.37,1.83,6.34,4.39,9.47,6.65,9.6,6.92,17.92,7.03,27.66.32,19.42-13.37,31.45-13.38,51.18-.05,10.1,6.82,18.37,6.68,28.28-.48,2.94-2.13,5.69-4.6,8.85-6.33,4.89-2.67,9.43-1.74,12.36,3.18,2.9,4.85.84,8.69-3.4,11.67-1.49,1.05-3.01,2.06-4.91,3.36h0Z"/>
  <path d="M980.76,788.11c14.56-6.38,27.51-3.97,39.74,4.78,12.4,8.87,20.07,8.56,32.07-.87,2.49-1.95,5.14-3.81,7.97-5.18,4.34-2.09,8.12-.56,10.72,3.21,2.56,3.72,1.66,7.44-1.29,10.58-16.69,17.72-38.5,20.28-58.57,6.92-11.81-7.86-18.32-7.79-29.91.35-16.2,11.37-32.83,11.22-48.72-.41-2.75-2.01-5.71-3.76-8.38-5.86-3.9-3.07-5.22-7.11-2.38-11.4,2.68-4.06,6.79-5.53,11.29-3.03,3.56,1.97,6.8,4.53,10.11,6.93,9.24,6.69,16.87,6.94,26.52.81,3.45-2.19,6.91-4.39,10.84-6.81v-.02Z"/>
  <path d="M378.1,803.94c-8.37-4.01-15.5-1.88-22.3,2.65-21.23,14.14-41.79,12.17-59.72-5.76-3.07-3.07-4.1-6.73-1.69-10.51,2.46-3.86,6.12-5.19,10.64-3.56,3.74,1.35,6.51,4.1,9.6,6.4,10.48,7.82,18.47,8.05,29.43.87,19.91-13.06,31.78-12.95,51.23.44,9.45,6.51,17.61,6.48,27.13-.16,3.35-2.34,6.44-5.13,10-7.07,4.68-2.54,9-1.26,11.76,3.27,2.72,4.47,1.11,8.35-2.85,11.28-3.83,2.84-7.7,5.67-11.76,8.16-14.69,8.99-29.23,8.58-43.53-1.05-2.45-1.65-4.98-3.17-7.95-4.97h0Z"/>
  <path d="M376.34,753.77c-8.16-3.06-14.75-.45-21.05,3.77-19.2,12.88-33.56,12.64-52.03-.83-2.2-1.61-4.64-2.92-6.75-4.63-3.69-2.99-4.49-6.92-2.16-10.98,2.3-4.02,6.03-5.34,10.55-3.9,3.36,1.07,5.79,3.53,8.45,5.66,11.45,9.19,19.53,9.46,31.57,1.14,17.44-12.05,31.88-12.04,49.13.05,11.85,8.3,19.54,8.06,30.89-1.04,2.85-2.28,5.63-4.7,9.16-5.84,3.96-1.28,7.27.11,9.65,3.26,2.45,3.26,2.41,6.77-.15,10.09-11.87,15.34-37.04,20.59-53.94,11.2-4.37-2.43-8.02-6.03-13.31-7.96h-.01Z"/>
  <path d="M428.56,514.49c-2.7-2.14-5.22-3.76-7.28-5.84-3.65-3.68-4.35-8-1.13-12.29,3.17-4.21,7.83-5.64,12-2.49,11.04,8.34,21.84,17.04,32.27,26.13,3.76,3.28,3.88,8.24.21,12.25-3.58,3.91-8.04,4.4-12.23,1.21-7.95-6.04-15.65-12.42-23.84-18.96h0Z"/>
  <path d="M922.25,527.71c-2.68,2.15-4.92,4.08-7.32,5.79-4.34,3.08-8.59,2.81-12.13-1.22-3.48-3.95-3.95-8.74.06-12.18,10.49-8.99,21.29-17.66,32.3-26.01,4.12-3.13,8.91-2.23,11.98,2.14,3.19,4.53,2.38,9.29-1.75,12.81-7.42,6.32-15.16,12.26-23.14,18.68h0Z"/>
  <path d="M415.82,565.36c8.02,1.05,15.47,1.79,22.84,3.03,5.64.95,8.15,4.94,7.33,10.41-.8,5.28-4.76,8.03-9.77,7.59-12.64-1.12-25.24-2.74-37.83-4.37-5.94-.77-8.75-4.57-8.18-10.48.58-6.02,4.76-7.91,10.1-7.65,4.98.24,9.93.9,15.51,1.48h0Z"/>
  <path d="M943.94,585.19c-4.69.46-8.77,1.16-12.85,1.16-5.52,0-9.29-2.98-9.74-8.52-.42-5.18,2.36-8.77,7.77-9.46,12.63-1.6,25.26-3.14,37.92-4.48,5.51-.58,9.49,1.84,10.2,7.63.69,5.61-2.27,9.45-7.66,10.38-8.28,1.44-16.68,2.17-25.64,3.28h0Z"/>
  <path d="M402.86,647.99c.29-5.16,2.97-7.95,6.99-9.79,9.92-4.56,19.76-9.31,29.76-13.7,7-3.08,11.79-1.83,14.17,3.13,2.56,5.34.28,9.87-6.79,13.29-9.63,4.65-19.27,9.28-28.94,13.83-8.1,3.81-11.96,2.18-15.18-6.75h-.01Z"/>
  <path d="M938.32,629.27c6.66,3.11,12.89,5.9,19.03,8.91,6.14,3.01,8.44,8.25,6.08,13.26-2.43,5.16-7.43,6.48-14.01,3.43-9.92-4.58-19.83-9.22-29.64-14.03-6.49-3.18-8.77-8.02-6.56-13.04,2.25-5.12,7.14-6.36,14.03-3.46,3.57,1.5,7.08,3.13,11.08,4.93h-.01Z"/>
</svg>