<?xml version="1.0" encoding="UTF-8"?>
<svg id="Layer_1" xmlns="http://www.w3.org/2000/svg" version="1.1" viewBox="0 0 1366 1024">
  <!-- Generator: Adobe Illustrator 29.7.1, SVG Export Plug-In . SVG Version: 2.1.1 Build 8)  -->
  <path d="M647.44,558.29c-1.13,34.44-6.09,68.01-4.5,101.88,1.24,26.3,7.53,51.7,13.59,77.16,3.23,13.55,6.08,27.19,8.94,40.82,1.42,6.77-1.26,11.83-6.58,12.56-6.24.86-8.7-2.94-9.81-8.42-6.54-32.35-16.19-64.02-20.98-96.77-3.45-23.65-2.8-47.38-1.69-71.1.83-17.83,2.87-35.6,3.73-53.43,1.29-26.64,3.05-53.29.19-79.97-2.22-20.6-6.41-40.29-23.41-54.45-9.71-8.09-21.09-11.91-34.3-13.09-1.24,9-.84,17.56.02,25.96,1.68,16.41,5.69,32.28,13.72,46.9,14.85,27.05,19.75,55.58,12.62,85.85-2.09,8.85-4.89,17.66-9.9,25.18-11,16.52-12.06,35.36-13.65,54.03-1.83,21.51,3.33,41.89,12.91,61.01,19.01,37.95,27.73,78.73,34.04,120.23,5.8,38.18,7,76.5,2.7,114.88-1.49,13.34-3.73,26.65-7.29,39.65-2.14,7.82-6.07,10.9-11.67,8.89-6.74-2.42-6.15-7.7-4.83-13.4,9.32-40.21,10.62-80.88,6.67-121.82-.04-.44-.44-.84-.75-1.42-3.6-.79-6.47,1.41-9.53,2.71-41.92,17.75-79.16,42.77-113.27,72.71-3.28,2.88-6.87,6-10.87,7.35-7.08,2.38-8.37,7.36-8.36,13.63.02,10.04-.06,20.09-.03,30.13.02,5.8-1.51,10.46-8.36,10.48-6.82.03-8.51-4.69-8.57-10.41-.1-11.02-.09-22.05-.16-33.07-.02-3.22.02-6.47-3.74-8.01-17.83-7.3-31.03-21.24-46.04-32.52-28.17-21.17-58.6-38.25-90.85-52.24-1.3-.56-2.74-.81-5.02-1.46-.67,4.43-1.64,8.42-1.82,12.45-1.55,35.04-1.55,70.01,5.8,104.56.66,3.1,1.76,6.12,2.41,9.22,1.05,5.02.43,9.61-5.33,11.18-5.81,1.57-9.52-1.37-11.09-6.83-3.65-12.74-5.79-25.8-7.4-38.91-8.1-66,.92-130.32,19.26-193.7,3.82-13.2,8.88-26.03,15.37-38.1,16.49-30.69,18.2-62.97,11.78-96.36-1.71-8.89-4.58-17.11-8.76-25.36-18.66-36.89-17.23-73.76,3.53-109.43,12.33-21.17,17.81-43.8,17.8-68.03,0-1.66-.37-3.32-.66-5.81-16.52,1.43-30.66,6.89-41.3,19.56-12.42,14.78-15.82,32.96-17.59,51.32-4.18,43.29-1.47,86.6.62,129.89,2.01,41.66-2.61,82.53-12.98,122.9-7.24,28.19-14.58,56.42-16.47,85.64-1.44,22.25-1.23,44.53-.07,66.8.79,15.18,2.88,30.17,6.24,45.01,1.27,5.61-1.28,9.91-6.98,11.04-5.69,1.13-8.57-2.7-9.77-7.7-4.08-16.95-6.01-34.19-7-51.58-3.05-53.56,3.32-105.96,18.03-157.53,12.81-44.88,12.84-90.86,10.59-137.01-2.19-44.99-5.32-90.09,5.02-134.58,8.62-37.07,33.92-58.25,71.87-61.67,9.71-.87,19.55-1.26,29.04-4,16.07-4.63,24.8-15.49,27.13-32,1.34-9.48-.44-16.14-8.15-22.96-14.72-13.02-24.22-30.03-30.16-48.81-1.35-4.27-3.55-6.85-7.68-8.92-19.95-10.03-28.04-42.2-14.76-60.02,3.95-5.3,4.21-10.08,4.08-16.17-1.01-48.42,11.9-91.09,55.09-118.47,12.49-7.92,20.54-14.95,23.89-30.75,5.68-26.81,35.09-43.82,64.32-41.34,28.76,2.44,51.93,24.47,55.44,52.13,1.14,8.99.09,17.59-2.33,26.09-1.06,3.72-.88,6.48,1.94,9.29,29.92,29.79,36.48,66.96,33.32,107.02-.34,4.26.32,7.27,2.94,10.67,14.85,19.21,6.48,51.92-15.8,62.09-3.08,1.41-5.18,2.93-6.27,6.41-6.71,21.56-18.73,39.78-35.65,54.69-3.65,3.22-5,6.72-4.98,11.51.08,26.3,14.49,40.14,44.13,42.26,16.66,1.19,33.16,3.19,48.18,11.45,23.49,12.92,34.46,34.19,38.47,59.41,4.86,30.62,3.86,61.49,1.73,93.02M318.43,769.63c-.46,1.65-.93,3.3-1.38,4.95-3.97,14.63-4.08,14.86,10.01,21.44,49.05,22.92,100.69,30.78,154.49,26.6,37.32-2.89,72.65-12.56,106.4-28.63,6.78-3.23,8.62-7.04,6.72-14.28-5.48-20.92-12.97-41.02-22.33-60.51-12.4-25.81-16.79-52.95-13.01-81.47.6-4.52,3.31-9.29.36-14.69-24.77,7.13-49.64,3.2-74.41,1.02-22.06-1.94-44-1.38-65.98.78-17.29,1.7-34.6,3.72-51.97,1.04-5.92-.91-11.79-2.18-17.48-3.25-1.24,2.68-.64,4.55-.31,6.48,4.93,28.62,3.12,56.57-8.49,83.5-7.93,18.42-17.04,36.38-22.62,57.01M328.41,562.58c1.46,7.21,4.05,14.05,6.38,21,5.61,16.72,18.32,23.44,34.43,25.14,12.91,1.36,25.91.87,38.87-.29,22.9-2.05,45.73-4.61,68.84-2.63,21.43,1.83,42.84,4.82,64.45,3.24,16.11-1.18,28.07-7.73,34.94-23.43,12.26-28.03,11.82-55.57-1.01-83.05-4.97-10.64-10.76-20.88-13.96-32.29-4.67-16.6-6.38-33.59-7.21-50.73-.13-2.72,1.42-7.17-2.3-7.54-4.9-.49-2.94,4.63-3.62,7.29-1.14,4.49-1.45,9.18-2.4,13.73-4.41,21.21-11.94,40.89-28.25,56.09-20.45,19.05-45.28,24.91-72.12,21.86-31.31-3.56-54.23-19.75-67.06-49.1-6.23-14.27-9.28-29.32-10.84-44.74-.23-2.24.36-5.67-3.33-5.31-2.88.28-2.42,3.26-2.49,5.37-1,29.84-8.14,57.7-23.29,83.87-10.63,18.36-14.32,38.9-10.03,61.53M385.31,301.34c3.73,5.45,7.12,11.17,11.24,16.3,27.32,34,72.57,39.83,107.48,13.78,18.73-13.98,30.36-32.92,37.04-55.09,1.47-4.88,2.25-10.01,8.72-11.4,14.12-3.04,22.33-18.61,17.14-32.1-1.73-4.5-3.57-7.98-9.57-4.08-5.48,3.57-11.27.88-11.91-5.54-.49-5-3.11-7.19-6.81-9.43-15.65-9.49-29.25-21.33-40.22-36.05-3.76-5.04-7.35-10.21-10.93-15.21-.99.36-1.57.4-1.87.71-30.25,30.96-65.99,51.06-109.67,55.35-3.33.33-4.27,1.97-5.18,4.94-2.08,6.79-5.88,8.31-12.23,5.13-2.46-1.23-4.6-2.27-6.28.56-4.34,7.31-3.96,14.99-.94,22.58,2.49,6.26,5.58,12.41,13.43,12.95,5.98.41,8.41,3.66,9.77,9.04,2.35,9.26,5.36,18.33,10.79,27.57M446.32,927.07c9.97,5.26,18.39,1.99,26.27-4.67,13.27-11.22,26.6-22.37,40.7-32.58,26.33-19.06,54.91-33.98,84.7-46.74,3.21-1.38,7.7-1.88,7.23-6.93-.9-9.62-2.12-19.2-5.08-28.42-97.14,45.05-193.48,45.15-290.14-.06-3.08,7.1-3.06,14.79-4.81,22.06-1.76,7.29.33,11.45,7.88,14.5,30.98,12.52,60.01,28.64,87.21,48.18,15.31,11.01,28.87,24.29,46.03,34.65M498.55,482.44c9.2-6.81,16.63-15.13,21.6-25.52,6.73-14.09,9.93-29.07,11.58-44.5.5-4.71-1.52-6.98-5.51-9.02-15.92-8.1-23.75-21.94-26.78-38.98-.46-2.6-.18-5.4-2.86-8.11-26.03,12.01-52.59,11.68-79.29-.69-.37,2.87-.55,4.54-.8,6.2-2.41,15.88-8.15,30.57-22.72,38.37-9.9,5.3-10.83,11.78-8.8,20.83.37,1.67.44,3.4.71,5.09,2.86,17.4,8.21,33.85,20.26,47.2,21.85,24.22,60.98,28.21,92.61,9.13M492.75,89.51c-37.97-10.74-73.29-6.74-102.08,22.18-24.97,25.08-32.21,56.87-29.99,91.88,12.18-1.89,23.44-2.43,34.31-5.43,36.64-10.11,66.83-29.63,88.83-61.05,2.68-3.83,5.77-7.04,10.93-4.99,5.27,2.09,6.49,6.47,4.95,11.48-1.11,3.61.66,6.19,2.17,8.91,11.61,20.82,28.01,36.92,48.6,48.8,2.03,1.17,4,2.91,6.69,2.22,6.29-41.54-10.13-95.33-64.42-114M448.05,42.33c-5.28,4.98-9.09,10.91-10.75,17.97-1.51,6.37.15,8.11,6.62,7.28,17.73-2.25,35-.21,52.12,4.68,9.37,2.68,17.76,7.63,26.77,11.65.84-1.68,1.39-2.48,1.66-3.36,5.26-17.02-6.62-39.37-25.03-47.05-18.53-7.74-35.29-4.29-51.39,8.83h0Z"/>
  <path d="M802.87,298.64c-4.89-11.14-4.76-21.49,1.87-31.28,2.46-3.64,1.69-7.41,1.54-11.32-1.03-26.32,4.87-50.58,25.35-68.43,10.45-9.11,18.89-17.15,22.82-31.94,5.68-21.36,30.55-31.98,53.15-26.9,22.95,5.16,37.01,23.86,35.09,48.01-.54,6.8,1.26,11.09,5.84,15.96,16.02,17.08,20.88,38.3,20.35,61.04-.15,6.23.56,11.62,4.12,17.27,7.91,12.54,1.36,33.57-12.26,40.84-3.81,2.03-5.84,4.58-7.32,8.45-4.06,10.62-9.88,20.19-17.97,28.31-10.17,10.2-7.33,25.69,5.88,32.16,6.49,3.18,13.56,4,20.63,4.8,6.8.77,13.66,1.29,20.38,2.56,25.89,4.9,41.29,20.93,45.68,47.02,3.19,18.94,3.39,38.03,2.3,57.11-2.1,36.76-3.45,73.4,8.3,109.09,1.06,3.23,1.76,6.64,2.15,10.03.51,4.43-1.51,7.73-5.9,8.9-4.73,1.25-7.74-1.46-8.87-5.6-8.67-31.72-15.38-63.5-12.89-96.95,1.97-26.5,3.73-53.27-.57-79.83-3.13-19.32-14.37-31.22-32.14-34.53-1.44-.27-2.88-.73-5.23.96-.22,16.76.85,33.88,9.79,49.55,11.49,20.15,14.5,41.29,7.81,63.64-.63,2.1-1.25,4.26-2.27,6.19-11.54,21.92-8.3,43.53,1.93,64.63,7.65,15.78,13.57,31.94,15.63,49.43.74,6.31-.5,11.28-7.28,13.23-2.62.75-3.96,2.37-3.14,4.83,2.92,8.74-3.47,11.88-9.1,15.27-16.97,10.2-35.39,16.72-54.81,20.21-47.57,8.56-93.58,4.47-137.15-17.85-4.52-2.32-8.84-5.03-13.74-7.84-5.02,10.19-4.27,20.88-5.93,31.08-.16.96-.13,1.96-.12,2.93.07,5.6-2.7,9.25-8.23,9.1-5.81-.15-7.57-4.58-7.42-9.83.25-8.58.66-17.28,3.04-25.46,6.48-22.31,8.3-45.75,16.62-67.56,2.17-5.69,4.61-11.43,7.89-16.52,10.53-16.34,9.55-34.5,9.03-52.62-.05-1.81-1.34-3.63-2.24-5.35-12.21-23.31-13.52-47.45-1.08-70.44,9.87-18.26,12.98-37.1,12.66-57.15-10.96-2.33-25.48,5.37-31.92,17.09-5.45,9.92-7.22,20.85-7.4,31.9-.32,20.32-.59,40.68.19,60.97,1.25,32.37-1.95,63.98-12.38,94.8-2.57,7.6-3.81,15.66-5.56,23.53-1.05,4.73-3.17,8.7-8.6,8.22-6-.54-7.27-5.15-6.67-10.27,1.61-13.67,5.31-26.94,9.54-39.92,9.72-29.82,8.54-60.34,7.42-90.93-.85-23.24-1.83-46.52,3.49-69.42,5.95-25.58,23.3-40.33,49.48-42.84,8.03-.77,16.13-1.41,23.99-3.09,12.09-2.58,18.25-10.49,19.15-22.83.27-3.71-.8-6.51-3.69-9.02-10.2-8.85-17.27-19.92-22.19-32.41-1.11-2.81-2.25-5.34-5.33-6.59-6.5-2.63-10.66-7.6-13.69-14.39M970.09,571.49c-.69-7.25-1.38-14.5-2.15-22.56-14.32,4.26-28.36,4.38-42.47,1.81-20.16-3.68-40.39-3.94-60.66-1.03-10.18,1.46-20.33,3.47-30.64,2.67-6.72-.52-13.37-1.9-20.44-2.96-.19,2.1-.33,3.77-.5,5.44-1.39,14.13-2.56,28.26-10.22,40.88-8.91,14.68-13.59,30.75-15.46,47.79-.42,3.82.63,5.92,3.57,7.9,11.02,7.43,22.69,13.59,35.3,17.78,30,9.98,60.78,12.75,92.02,8.58,24.99-3.34,48.81-10.34,69.39-25.89,3.49-2.64,4.79-5.31,4.67-9.8-.42-15.58-5.22-29.81-12.4-43.35-4.39-8.28-8.17-16.7-10.03-27.25M968.52,530.58c2.37-1.89,3.72-4.52,5.02-7.16,10.01-20.4,9.16-40.75-1.2-60.62-5.16-9.9-8.8-20.07-10.37-31.11-1.31-9.21-2.34-18.44-2.77-27.74-6.04,52.63-35.83,70.59-76.67,67.62-27.29-1.98-57.15-16.22-60.31-67.44-.12,1.2-.19,2.41-.11,3.61,1.27,21.03-2.94,40.56-13.49,59.14-9.04,15.93-8.23,33.17-2.81,50.49,3.79,12.12,12.05,18,24.03,19.26,6.55.69,13.23.89,19.77-.29,25.49-4.6,50.97-5.62,76.61-1.12,14.1,2.47,28.23,3.68,42.31-4.65M881.81,255.7c-13.4,8.09-27.81,13.18-43.43,14.78-2.62.27-5.86.12-7.27,2.76-3.4,6.34-8.32,6.72-14.03,4.03-5.04,10.06-1.36,19.26,8.69,22.02,4.57,1.25,6.97,4.08,8.21,8.44,2.71,9.52,6.7,18.48,13.31,25.95,12.13,13.72,27,22.27,45.81,19.97,26.04-3.18,40.17-20.44,48.03-43.82,1.88-5.6,4.31-9.22,10.36-10.92,8.29-2.32,11.62-14.01,6.51-21.91-6.45,2.84-11.79,2.55-13.58-5.94-.44-2.07-2.78-2.64-4.46-3.57-7.58-4.19-14.24-9.57-20.12-15.86-4.45-4.76-8.55-9.85-13.06-15.08-7.94,6.83-15.34,13.6-24.97,19.17M881.99,456.08c10.58.7,21.02.48,31.09-3.59,17.57-7.09,32.13-31.51,30.33-50.67-.4-4.3-3.55-4.82-6.34-6.08-11.4-5.14-19.28-13.21-21.73-25.86-.33-1.69-.68-3.37-2.55-4.84-7.87,2.41-16.07,4.91-24.69,4.8-8.53-.11-16.6-3.19-25.49-5.01-1.92,15.33-9.7,25.59-22.94,31.73-2.75,1.27-2.96,3.79-2.66,6.27,3.32,27.49,10.8,47.76,44.98,53.25M852.27,252.5c20.23-6.78,37.45-17.79,49.94-35.45,2.38-3.37,4.95-6.34,9.56-5.1,4.28,1.15,4.61,5.01,5.64,8.61,5.03,17.57,18.82,26.75,33.33,35.89,6.58-16.32-2.65-44.05-18.17-57.21-21.82-18.5-57.52-21.94-80.39-7.76-21.7,13.45-34.41,41.81-28.93,65.21,9.45.25,18.78-.99,29.03-4.19M888.83,144.74c-14.21,4.58-20.78,11.69-21.59,24.23,20.29-5.02,39.67-1.5,58.24,6.61,2.8-4.32,1.83-7.88.8-11.35-4.33-14.56-17.75-21.87-37.45-19.48h0Z"/>
  <path d="M1014.52,678.72c-16.8,11.68-34.32,20.86-53.02,27.77-2.06.76-4.17,1.47-6.31,1.93-4.43.95-7.88-.59-9.41-4.92-1.53-4.31.23-7.81,4.12-9.87,3.23-1.71,6.78-2.79,10.14-4.27,81.25-35.67,130.29-98.05,147.61-184.1,15.34-76.24-3.27-145.21-53.67-204.87-18.69-22.12-41.29-39.61-67.44-52.33-1.54-.75-3.12-1.49-4.47-2.52-3.95-3.01-5.6-6.99-3.28-11.6,2.48-4.93,6.77-5.11,11.32-3.12,11.94,5.24,23,12.06,33.52,19.66,58.22,42.06,93.49,99,102.48,169.83,13.59,107.07-25.51,193-111.59,258.42Z"/>
  <path d="M776.54,734.2c33.34-6.84,64.86-3.66,94.93,11.41,33.27,16.67,55.18,43.07,66.88,78.19.92,2.76,1.83,5.53,3.02,9.11,4.94-4.71,7.22-10.32,10.49-15.21,1.9-2.84,3.43-6.01,5.69-8.53,3-3.33,6.91-3.66,10.62-1.08,3.62,2.51,5.31,6.21,2.96,10.21-8.94,15.19-17.98,30.33-27.36,45.26-2.86,4.56-7.97,5.6-12.24,2.3-14.72-11.38-29.21-23.06-43.55-34.92-4.27-3.53-4.09-8.39-.46-12.4,3.57-3.96,7.75-3.24,11.84-.27,7.88,5.71,14.69,12.85,24.29,18.4-3.23-16.78-10.28-30.59-20.15-42.8-31.98-39.55-74-52.97-122.65-42.48-49.11,10.59-78.77,43-92.07,90.91-.98,3.52-1.31,7.22-2.1,10.8-1.15,5.23-4.36,8.48-9.84,7.77-5.58-.72-7.83-4.65-7.05-10.1,3.7-25.82,13.99-48.81,30.28-69.09,19.75-24.58,45.41-39.85,76.47-47.48h0Z"/>
  <path d="M731.85,918.69c2.56,4.85,1.65,8.61-2.32,11.39-4,2.81-7.87,1.78-11.49-1.03-7.32-5.68-14.65-11.34-23.12-17.89,2.38,12.07,7.5,21.42,13.43,30.2,21.48,31.83,51.54,49.3,89.79,52.85,60.42,5.6,111.66-33.47,127.31-86.33,1.77-5.98,5.26-9.17,11.28-7.21,6.17,2.02,6.6,7.01,4.74,12.65-17.67,53.65-53.99,86.42-109.66,96.46-55.33,9.98-109.51-14.25-139.3-61.2-6.19-9.76-10.82-20.27-14.6-32.42-5.24,6.55-7.76,13.64-11.41,20.01-5.01,8.75-9.25,11.46-14.31,8.61-5.23-2.95-5.57-7.87-.84-16.79,7.11-13.41,14.29-26.79,21.57-40.12,3.79-6.94,8.95-8.96,14.28-4.69,14.71,11.78,30.39,22.33,44.65,35.51h0Z"/>
  <path d="M716.68,299.93c-29.26,34.33-47.69,73.21-55.36,117.17-.62,3.55-.94,7.38-4.78,9.43-5.89,3.16-12.12-1.34-11.53-9.06.94-12.22,3.94-24.14,7.58-35.79,17.24-55.17,49.24-99.67,96.85-132.7,10.28-7.13,21.25-13.1,32.61-18.36,4.82-2.23,9.53-3.33,12.82,2.22,2.66,4.49.25,10.15-5.91,13.01-27.73,12.9-51.33,31.27-72.28,54.07h0Z"/>
  <path d="M661.24,684.11c-.51-5.66,2.82-7.63,6.91-8.51,14.78-3.16,21.61-13.2,23.9-27.24.68-4.17,2.02-8.04,6.95-7.95,4.94.09,6.33,4.16,6.75,8.24,1.56,15.13,9.87,23.96,24.6,27.12,3.56.76,6.58,2.54,6.52,6.77-.06,4.11-2.81,6-6.5,6.77-15.2,3.16-23.18,12.59-24.57,27.95-.36,4.01-2.27,7.18-6.84,7.17-4.55,0-6.36-3.16-6.88-7.16-1.98-15.26-9.5-25.43-25.42-28.07-2.6-.43-4.45-1.92-5.41-5.09M694.9,689.81c1.39,1.23,2.04,3.46,2.84,3.43,4.51-4.32,8.14-7.81,11.79-11.31-3.26-3.41-6.77-7.09-10.52-11.01-3.72,3.95-7.33,7.78-11.02,11.7,2.23,2.29,4.25,4.37,6.91,7.19h0Z"/>
  <path d="M455.92,755.28c-6.07-.81-10.16-3.23-9.06-9.44.97-5.45,5.4-7.25,10.42-6.96,4.65.27,8.82,2.06,9.1,7.52.34,6.67-4.05,8.71-10.47,8.87h0Z"/>
  <path d="M890.94,619.64c5.62.44,9.24,2.74,8.56,8.19-.54,4.25-4.07,5.54-8.17,5.58-4.24.04-8.27-.72-8.93-5.49-.76-5.49,3.03-7.67,8.54-8.29h0Z"/>
</svg>