<?xml version="1.0" encoding="UTF-8"?>
<svg id="Layer_1" xmlns="http://www.w3.org/2000/svg" version="1.1" viewBox="0 0 1366 1024">
  <!-- Generator: Adobe Illustrator 29.7.1, SVG Export Plug-In . SVG Version: 2.1.1 Build 8)  -->
  <path d="M388.66,617.75c-.18,64.06,9.58,126.19,23.57,187.81,8.88,39.15,20.45,77.66,27.98,117.13,1.75,9.14,3.11,18.37,4.33,27.6.79,5.94-3.16,11.04-8.45,11.65-5.03.58-9.68-3.11-10.43-9.08-6.07-48.19-20.97-94.39-31.61-141.55-11.69-51.8-20.34-104.01-23.54-157.19-3.91-64.79,2.88-128.56,15.33-191.93,12.96-66.01,31.76-130.21,59.45-191.66,8.96-19.88,19.44-38.95,30.5-57.71,20.38-34.52,28.26-72.03,26.83-111.73-.32-8.86-1.8-17.66-2.4-26.51-.51-7.57,2.88-12.1,8.78-12.55,5.48-.42,9.38,3.56,10.36,10.76,7.87,57.77-1.85,111.85-33.54,161.44-8.87,13.87-15.86,28.78-22.86,43.66-1.12,2.37-1.95,4.86-3.28,8.2,154.71,33.73,310.81,53.33,467.14,69.51,2.25-2.66.79-4.71.21-6.72-11.74-40.75-28.08-79.53-49.94-115.92-18.63-31.01-29.22-64.41-31.93-100.6-1.51-20.11.1-39.9,2.07-59.77.52-5.27,2.65-9.43,8.52-10.41,5.94-.99,10.61,2.59,10.48,8.92-.18,8.19-1.1,16.37-1.78,24.54-3.65,43.68,3.8,85.16,26.56,122.91,35.55,58.97,56.66,123.17,71.33,189.91,9.49,43.13,17.33,86.54,23.17,130.31,6.66,49.91,8.32,99.97,3.93,150.17-5.36,61.24-18.87,120.94-34.02,180.33-7.02,27.53-13.13,55.24-17.15,83.39-.91,6.37-5.51,10.11-10.85,9.15-5.6-1-8.59-5.97-7.78-12.67,4.28-35.58,13.66-70.07,22.36-104.7,10.88-43.27,20.07-86.89,25.83-131.13,4.97-38.17,6.03-76.61,4.11-115.04-.69-13.89-1.57-27.86-4.11-41.44-2.64-1.47-4.65,0-6.63.68-35.73,12.39-68.78,29.84-99.14,52.44-3.3,2.46-3.73,4.75-2.56,8.46,10.41,33.3-17.53,60.37-43.43,58.33-5.81-.46-7.19,3.05-8.17,7.46-3.1,13.91-8.5,26.59-18.83,36.84-11.9,11.8-26.33,17.96-42.82,19.15-5.01.36-7.1,2.39-7.56,7.11-2.03,20.78-3.33,41.53-2.44,62.47,1.74,40.87,8.41,81.19,12.23,121.82.6,6.41.94,12.84,1.2,19.28.25,6.18-3.62,10.74-9.14,11.08-5.42.34-9.41-3.8-9.71-10.32-1.41-31.08-6.81-61.72-9.84-92.63-3.69-37.64-5.6-75.3-.94-112.99.78-6.34-.45-10.06-6.86-12.89-12.12-5.33-20.47-15.34-28.28-25.73-3.45-4.59-6.44-9.59-11.37-12.95-6.41-4.36-12.83-4.41-19.4-.62-6.06,3.49-10.63,8.71-15.47,13.59-1.98,2-1.6,4.34-1.06,6.85,9.08,42.12,8.76,84.58,5.05,127.25-3.13,36.03-10.18,71.63-11.49,107.85-.14,4-.55,8.12-4.33,10.69-2.93,1.99-6.06,2.66-9.43.98-4.05-2.03-5.73-5.41-5.63-9.77.31-13.77,1.78-27.45,3.52-41.1,3.48-27.28,7.27-54.51,9.15-81.98,2.21-32.22,2.29-64.32-2.88-96.3-.49-3.06-.68-6.16-2.29-8.95-2.93-1.13-5.2.71-7.62,1.55-40.03,13.96-82.07-11.74-87.12-53.97-1.29-10.79-3.44-16.94-15.74-20.55-26.95-7.9-37.61-36.42-25.2-62,1.71-3.52,2.04-5.83-1.23-8.59-25.48-21.42-53.1-39.46-83.4-53.33-.96-.44-2.05-.63-4.08-1.22-5.17,30.86-6.23,61.53-6.18,92.96M956.35,475.71c-5.43-31.73-12.19-63.18-20.07-94.39-1.04-4.14-3.22-5.63-7.39-6.07-49.66-5.11-99.28-10.67-148.83-16.85-64.96-8.11-129.77-17.14-194.29-28.23-41.99-7.22-83.8-15.33-125.42-24.37-6.38-1.39-9.47-.6-11.99,5.93-23.44,60.72-39.42,123.39-49.82,187.56-.56,3.44-.06,5.91,3.64,7.44,29.35,12.17,55.93,29.03,81.01,48.37,1.32,1.03,2.51,2.66,4.83,1.94.12-.8.35-1.66.35-2.52-.02-13.57-8-22.19-18.5-28.94-45.28-29.15-48.24-102.65,2.69-137.7,39.19-26.97,93.03-16.18,124.19,13.33,9.95,9.42,17.62,20.53,24.27,32.42,1.67,3,3.18,5.44,7.68,4.46,10.93-2.39,21.17,0,30.58,5.96,15.91,10.04,32.4,10.96,49.59,3.47,6.76-2.94,13.95-5.42,21.31-3.63,6.56,1.6,9.96-.89,13.66-5.95,25.29-34.59,59.18-50.27,102.15-45.99,46.69,4.64,88.18,43.13,81.51,98.68-3.39,28.3-17.15,50.57-43.06,64.22-4.91,2.58-10.16,4.63-14.33,8.4-7.24,6.56-12.12,14.27-11.85,25.72,3.08-1.93,5.16-3.11,7.12-4.47,13.36-9.26,27.4-17.34,41.85-24.73,16.64-8.51,33.85-15.65,51.61-21.5,3.15-1.04,7.21-1.46,6.33-6.81-3-18.17-5.78-36.37-8.82-55.7M789.83,665.16c-12.35-18.54-9.29-41.34,7.67-56.44,9.53-8.49,20.71-12.72,33.53-12.32,4.18.13,7.61-.34,7.74-5.71.59-24.97,13.96-40.91,35.44-51.96,42.26-21.73,48.07-80.92,11.03-110.81-18.86-15.22-40.64-19.77-64.45-16.68-28.13,3.66-49.01,18.22-64.24,41.64-1.4,2.16-2.09,4.2-.41,6.73,9.69,14.69,10.7,30.81,6.79,47.36-1.37,5.81.32,7.91,5.7,9.38,9.69,2.66,16.93,8.74,21.09,17.99,7.1,15.83,3.14,30.56-5.71,44.18-11.39,17.52-26.14,31.9-43.75,43.19-17.02,10.93-35.87,16.24-55.93,17.55-3.83.25-7.11.49-7.33,5.54-.25,5.98-.56,11.98-1.38,17.89-1.01,7.32.22,12.89,8.02,15.89,3.69,1.42,6.24,4.95,8.73,8.07,4.85,6.07,9.32,12.45,14.36,18.35,13.64,16.03,36.02,20.83,55.15,12.34,20.51-9.1,26.13-27.65,30.28-47.18.35-1.64-.77-2.94-2.3-5M559.77,550.76c-5.51-25.8,5.47-43.34,30.99-48.69,4.78-1,5.56-3.19,5.3-7.26-.97-14.8,1.57-28.77,10.22-41.18,1.65-2.36,1.31-4.49.13-6.83-8-15.89-18.2-29.85-33.2-40.04-30.32-20.59-70.77-20.31-96.71,2.11-32.58,28.15-28.95,81.02,4.8,101.99,5.48,3.4,10.44,7.48,14.44,12.68,8.75,11.39,13.18,24.14,11.74,38.52-.67,6.71.67,10.12,8.5,10.51,9.77.5,18.25,5.35,25.53,11.85,16.66,14.86,20.42,40.41,6.79,56.33-6.08,7.1-8.43,13.37-6.08,21.93.23.84.12,1.77.21,2.66,2.22,21.48,16.22,38.03,36.17,42.85,19.26,4.66,34.95-2.05,48.33-15.44,7.89-7.88,15.57-15.87,26.49-19.62,3.24-1.12,3.96-3.91,3.99-6.99.05-6.66.03-13.34,1.24-19.92,1.15-6.24-1.31-9.06-7.57-10.52-46.11-10.75-73.79-41.7-91.3-84.94M697.88,589.06c8.97-6.06,15.53-13.73,17.56-24.8,2.09-11.39,7.69-21.12,14.61-30.29,11.03-14.63,17.52-30.79,15.56-49.58-1.95-18.71-13.82-26.12-31.12-19.2-8.29,3.32-16.68,6.14-25.71,6.26-14.14.18-26.97-3.84-39.12-11.14-13.57-8.15-24.98-4.16-31.39,10.3-1.16,2.61-2.04,5.4-2.67,8.19-3.79,16.76.66,32.12,8.41,46.79,4.82,9.14,8.31,18.65,9.16,28.99.98,11.95,5.05,22.28,14.28,30.48,8.03,7.14,12.37,16.63,15.26,26.86,1.08,3.84,2.14,7.79,7.36,8.22,5.37.43,7.56-2.93,9.09-7.11,3.55-9.69,9.54-17.47,18.75-23.95M640.71,606.24c-2.73-4.91-6.68-8.83-10.58-12.75-8.46-8.51-13.5-18.55-14.12-30.67-.73-14.14-6.8-26.48-13.16-38.72-.86-1.66-2-2.75-3.91-3.25-8.42-2.17-18.03,2.98-20.89,11.23-2.25,6.5-1.26,12.97,1.43,18.8,11.63,25.22,28.38,45.95,53.64,58.79,2.84,1.44,5.65,3.35,9.01,2.87.87-2.38-.4-3.85-1.4-6.3M730.49,578.69c-3.96,10.6-11.47,18.22-20.45,24.71-4.91,3.55-10.04,7.13-11.63,14.35,2.09-.31,3.59-.41,5.05-.76,17.29-4.11,31.94-13.04,44.68-25.16,9.66-9.18,18.85-18.82,24.43-31.23,2.56-5.71,3.24-11.56.68-17.41-2.75-6.27-8.11-8.99-14.54-10.3-6.16-1.24-7.63,3.71-10.53,7.2-9.16,11.03-14.43,23.74-17.68,38.58M800.94,642.42c.73,9.72,3.15,13.25,10.13,15.04,10.4,2.67,19-.76,25.59-8.56,6.79-8.04,8.24-17.41,4.27-27.43-1.28-3.24-3.48-4.73-6.86-5.43-16.42-3.37-30.21,7.09-33.13,26.38M534.86,628.48c8.82-16.62-4.35-38.04-26.56-38.23-3.51-.03-5.89,1.15-7.52,4.28-4.59,8.86-5.35,17.76-.22,26.6,5.24,9.04,13.47,13.05,23.68,13.49,4.38.19,7.68-1.7,10.61-6.15h.01Z"/>
  <path d="M1014.28,536.7c-1.53-5.47.05-9.25,4.67-11.56,4.48-2.24,8.31-.65,11.37,2.74,4.14,4.59,8.02,9.42,12.07,14.22,4.02-3.93,3.04-6.74,3.05-9.22.09-22.65.05-45.32.05-67.97,0-2.22-.17-4.49.23-6.64.83-4.43,3.67-7.07,8.17-7.46,4.8-.41,8.36,1.76,9.59,6.44.83,3.17.98,6.59,1,9.9.07,21.77,0,43.53.03,65.3,0,2.39-.54,4.87,1.01,7.61,5.47-3.13,9.13-8.19,13.66-12.2,3.14-2.78,6.49-4.81,10.85-3.08,5.79,2.3,7.91,9.68,3.47,14.33-10.43,10.92-21.2,21.52-32.07,32-3.77,3.64-8.69,4.21-12.68.47-11.81-11.06-23.88-21.89-34.45-34.88h-.02Z"/>
  <path d="M278.77,349.43c-6.69-5.81-7.16-10.35-1.65-15.96,9.8-9.97,19.69-19.84,29.72-29.57,5.83-5.66,10.99-5.55,16.82.14,9.84,9.61,19.59,19.31,29.27,29.09,4.89,4.93,5.21,10.82,1.14,14.65-3.92,3.7-9.24,3.28-14.06-1.62-4.49-4.58-8.57-9.56-13.51-15.14-2.25,4.13-1.74,6.59-1.74,8.87-.04,21.74,0,43.49-.02,65.23,0,2.43,0,4.92-.56,7.26-1.16,4.95-4.54,7.61-9.62,7.47-4.96-.13-7.59-3.4-8.59-7.88-.52-2.34-.36-4.85-.36-7.29-.02-23.72,0-47.45,0-73.3-5.85,5.7-10.57,10.09-15.03,14.72-3.21,3.32-6.74,4.95-11.83,3.34h.02Z"/>
  <path d="M317.84,574.4c5.32,2.4,7.98,5.99,6.65,11.35-1.43,5.76-5.91,7.16-11.3,7.11-10.44-.1-20.88.02-31.32-.04-7.06-.04-11.61-3.64-11.74-9.06-.13-5.27,3.89-9.53,10.58-9.79,12.19-.49,24.41-.84,37.13.44h0Z"/>
  <path d="M303.7,543.99c-5.11-3.17-9.9-5.96-14.52-9-5.29-3.48-6.71-9.64-3.55-14.36,2.84-4.26,8.03-5.09,13.55-1.76,9.48,5.7,18.9,11.51,28.21,17.5,5.31,3.41,6.71,8.43,4.17,13.04-2.67,4.82-8.14,6.22-13.83,3.12-4.66-2.53-9.08-5.49-14.02-8.53h-.01Z"/>
  <path d="M321.18,612.69c5.89-.53,9.49,1.94,10.94,7.05,1.47,5.15-1.49,8.46-5.52,10.9-9.26,5.62-18.54,11.21-27.94,16.6-5.81,3.33-11.21,2.16-13.91-2.57-2.73-4.79-1.2-10.09,4.41-13.47,10.4-6.27,20.43-13.2,32-18.49h0l.02-.02Z"/>
  <path d="M1083.43,678.9c3.55,3.76,4.5,7.65,2.18,11.86-2.19,3.96-5.91,4.87-10.2,4.82-10.63-.12-21.26.04-31.89-.05-6.71-.06-10.78-3.46-11.11-8.91-.31-5.28,3.56-8.96,10.45-9.46,13.44-.96,26.86-1.16,40.57,1.75h0Z"/>
  <path d="M1041.25,715.45c8.35,5.12,16.35,9.86,24.21,14.81,6.12,3.85,7.69,8.97,4.6,13.89-2.88,4.58-8.16,5.65-14,2.27-8.81-5.09-17.43-10.51-26.1-15.84-6.44-3.95-8.42-8.66-5.81-13.55,2.77-5.2,8.24-6.27,14.99-2.92.59.3,1.13.7,2.11,1.34h0Z"/>
  <path d="M1065.94,644.53c-8.19,4.53-15.88,8.96-23.72,13.08-6.08,3.19-11.14,1.95-13.86-2.93-2.63-4.73-.89-9.97,4.9-13.34,8.62-5.01,17.38-9.79,26.14-14.56,7.24-3.93,12.21-3.34,15.2,1.6,3.14,5.2,1.01,10.54-5.89,14.65-.76.45-1.56.85-2.77,1.49h0Z"/>
  <path d="M684.52,242.85c.98.17,1.41.26,1.84.34,8.52,1.63,12.12,5.17,11.14,10.94-1.08,6.32-6.7,9.1-15.16,7.52-2.16-.4-4.35-.69-6.51-1.13-5.99-1.2-9.78-6.12-8.68-11.21,1.12-5.17,6.34-8.33,12.25-7.39,1.52.24,3.03.55,5.09.92h.03Z"/>
  <path d="M757.1,690.38c-10.29,8.49-21.06,8.9-32.03,3.09-11.61-6.16-18.43-16.06-19.12-29.25-.37-7.13,3.46-12.9,10.21-15.85,11.83-5.16,23.99-9.39,36.78-11.41,8.62-1.36,15.62,3.07,16.26,11.68,1.12,15.01.04,29.85-12.12,41.73M747.3,672.96c1.88-5.02,4.36-9.95,2.73-15.96-8.08,1.1-15.01,3.91-21.96,6.61-2.01.78-3.64,2.24-2.59,4.57,2.17,4.89,5.92,8.15,11.1,9.68,4.46,1.32,7.72-.43,10.73-4.91h0Z"/>
  <path d="M619.6,674.06c-2.9,2.44-5.34,4.76-8.11,6.53-20.11,12.83-43.2,1.89-45.82-21.81-.9-8.16-.59-16.38,1.25-24.46,1.94-8.49,9-12.87,17.52-10.57,12.54,3.39,23.87,9.59,34.77,16.34,8.85,5.49,10.89,15.68,6.06,25.2-1.49,2.94-3.56,5.6-5.68,8.76M591.68,646.14c-2.03-.76-3.85-2.21-6.4-1.79-2.76,3.44-1.95,7.54-1.37,11.32.78,5.03,2.03,10.23,8.44,11.16,6.42.93,11.07-2.06,14.67-7.02,1.93-2.66,1.43-4.96-1.57-6.53-4.29-2.25-8.59-4.49-13.78-7.13h.01Z"/>
  <path d="M692.33,501.84c5.13,8.89,1.34,15.97-8.38,16.11-4.62.07-9.33-.49-13.86-1.45-4.65-.99-7.1-4.53-7.11-9.24,0-4.53,2.58-8.26,6.95-8.43,7.38-.3,15.08-1.41,22.39,3.02h0Z"/>
  <path d="M687.01,549.38c-6.35,5.47-12.94,4.03-19.16,1.45-4.92-2.04-6.05-7.94-3.19-12.52,3.01-4.84,12.89-6.28,19.51-2.48,5.41,3.11,6.1,7.77,2.84,13.54h0Z"/>
  <path d="M663.04,576.28c.43-5.18,2.66-8.41,7.42-9.36,5.81-1.16,11.66,1.83,12.96,6.5,1.31,4.69-1.34,9.7-5.86,11.09-6.41,1.96-11.62-.8-14.52-8.23h0Z"/>
</svg>