<?xml version="1.0" encoding="UTF-8"?>
<svg id="Layer_1" xmlns="http://www.w3.org/2000/svg" version="1.1" viewBox="0 0 1366 1024">
  <!-- Generator: Adobe Illustrator 29.7.1, SVG Export Plug-In . SVG Version: 2.1.1 Build 8)  -->
  <path d="M552.83,932.11c-2.78,22.73-6.89,44.63-10.58,66.6-.27,1.6-.67,3.19-1.14,4.74-1.84,6.12-6.41,9.16-11.93,8-5.85-1.23-8.57-5.76-7.43-12.73,3.02-18.54,6.24-37.05,9.17-55.6,6.85-43.47,10.38-87.15,6.27-131.1-2.38-25.44-6.85-50.58-13.83-75.21-1.86-6.56-5.31-12.27-9.56-17.63-13.41-16.91-24.77-34.85-27.44-56.97-1.17-9.68-.51-19.33.77-29.86-6.39.58-12.06,1.14-17.73,1.6-26.09,2.15-51.5-.34-75.58-11.38-27.52-12.62-43.25-36.65-41.64-64.24,1.12-19.28,9.12-35.81,22.02-50.01,21.27-23.4,47.96-39.47,75.01-54.95,47.47-27.16,97.83-48.31,147.63-70.64,1.7-.76,3.4-1.5,5.08-2.29,12.19-5.75,13.49-10.78,6.35-22.59-2.09-3.45-4.43-2.52-7.1-1.48-11.05,4.31-22.27,8.03-34.02,10-27.09,4.54-46.56-8.08-53.17-34.71-1.2-4.85-2.89-9.22-6.46-12.85-3.89-3.95-6-8.86-6.25-14.39-.2-4.58-2.26-7.19-6.69-8.5-3.08-.91-6.09-2.34-8.85-4.01-8.18-4.94-11.33-13.25-8.06-22.13,2.16-5.86,4.92-11.53,7.77-17.1,6.61-12.89,7.84-25.78,2.36-39.58-8.93-22.47-12.06-45.75-6.68-69.63,8.53-37.86,31.32-64.87,65.24-82.4,40.1-20.73,82.08-25.3,125.52-11.55,3.88,1.23,6.16.66,8.61-3.01,18.41-27.67,47.71-39.68,78.19-32.42,31.17,7.42,54.38,33.36,58.51,65.34,4.18,32.42-13.23,63.67-43.14,76.02-6.82,2.81-8.42,5.65-7.66,13.16,4.89,48.01-9.28,89.81-42.74,124.86-2.67,2.8-5.91,5.12-5.62,9.86.35,5.73,1.09,10.69,8.24,11.44,1.54.16,3.35.83,4.44,1.88,9.66,9.3,19.56,18.42,26.16,30.35.66,1.19.71,2.98,1.65,3.73,10.23,8.16,9.98,20.53,12.32,31.59,2.47,11.69-2.32,21.84-10.03,30.01.31,2.71,2.11,3.09,3.51,3.71,21.27,9.47,40,23.4,60.38,34.47,21.81,11.84,37.13,31.41,53.33,49.6,27.36,30.71,56.63,59.62,84.44,89.89,13.82,15.05,27.57,30.22,38.37,47.72,11.03,17.87,16.03,36.96,11.31,57.89-3.36,14.9-11.67,26.74-23.52,36.04-22.79,17.88-48.46,31.04-74.03,44.29-30.93,16.03-62.08,31.61-92.98,47.69-15.47,8.05-18.5,14.67-14.76,31.68,4.43,20.18,9.29,40.21,8.88,61.12-.26,13.11-2.38,25.86-5.97,38.38-1.03,3.59-.91,6.71.43,10.1,4.21,10.6,7.32,21.52,9.16,32.79,1.23,7.55-1.65,12.8-7.8,14.08-5.94,1.23-10.78-2.73-12.02-10.49-4.96-31.2-21.37-56.41-41.68-80.74-2.78,4.58-5.17,8.71-7.75,12.71-4.79,7.43-10.76,13.32-19.82,15.33-13.91,3.08-28.95-8.09-26.08-21.85,6.52-31.26,5.47-63.35,11.99-94.48,3.3-15.72,10.6-29.69,21.42-41.68,2.09-2.32,3.87-4.6,3.59-7.94-3.25-39.31,10.37-74.93,24.09-110.56,5.15-13.37,10.53-26.68,14.19-40.4-3.21-2.9-6.9-2.85-10.17-3.77-37.62-10.58-64.01-44.33-66.21-83.31-1.13-20.07.87-39.35,8.71-57.89,9.19-21.73,23.91-37.95,46.51-46.22.87-.32,1.73-.67,2.54-1.11.36-.2.56-.68,1.35-1.68-12.53-5.73-23.54-14.62-38.94-7.23-9.95,4.78-21.02,7.31-31.71,10.42-3.68,1.07-5.12,3.76-6.84,6.43-13.91,21.69-26.75,44.1-43.02,64.21-22.16,27.41-48.57,49.13-83.79,56.42-12.11,2.51-19.67,7.52-25.56,17.79-6.33,11.05-14.3,21.14-19.46,32.93-11.75,26.8-10.32,53.3,8.14,75.56,23.41,28.24,28.4,61.82,33.8,95.71,3,18.82,4.05,37.85,4.21,56.91.24,28.38-2.58,56.55-6.2,85.27M559.51,199.34c-17.29-10.51-30.87-24.49-39.64-42.84-2.63-5.51-.69-11.19,4.43-13.62,5.52-2.61,9.93-.81,13.12,4.19,2.62,4.1,4.79,8.54,7.74,12.39,17.53,22.98,41.84,33.7,69.57,38.32,4.41.73,7.11-.13,10.2-3.51,13.92-15.2,37.65-16.54,53.59-3.45,15.94,13.1,20.92,38.02,12.02,60.1-3.51,8.7-1.89,16.32,4.88,22.85,1.34,1.29,2.84,2.41,4.12,3.75,4.62,4.81,8.28,3.96,12.6-.94,21.53-24.45,33.23-52.88,34.75-85.34,2.63-56.16-28.25-103.98-79.77-121.15-44.41-14.8-86.83-8.45-125.45,18.08-22.26,15.29-36.89,36.57-41.7,63.58-3.43,19.25-.01,37.87,7.09,55.94,6.43,16.38,6.13,32.65-1.31,48.68-1.96,4.21-3.8,8.5-6.1,12.52-2.98,5.19-1.96,8.3,4.04,9.48,10.77,2.1,15.64,9.16,16.36,19.61.2,2.85.53,5.77,2.55,7.78,6.92,6.89,9.43,15.65,11.82,24.76,2.22,8.45,7.8,14.09,17.06,15.21,15.37,1.86,29.36-3.01,42.99-9.08,6.55-2.91,12.66-6.83,18.99-10.24,4.08-2.2,8.18-2.18,11.64,1.03,3.08,2.86,5.19,7.01,2.41,10.59-6.85,8.81,1.54,13.94,3.28,21.93,3.72-3.41,6.28-5.72,8.81-8.07,15.4-14.32,31.74-27.19,51.9-34.36,2.59-.92,7.23-.56,6.88-4.47-.42-4.74,1.06-10.28-4.34-13.9-7.75-5.19-14.44-11.7-20.39-18.89-2.17-2.62-4.12-3.81-7.67-2.46-5.33,2.02-9.89.19-12.1-5.02-2.26-5.34-.73-10.27,4.45-13.2,15.37-8.67,17.8-27.13,15.28-40.23-1.07-5.57-3.96-10.43-8.94-13.65-10.53-6.81-23.75-3.02-29.46,8.39-5.27,10.55-9.08,11.69-18.77,5.39-1.66-1.08-3.37-1.37-5.21-1.65-18.12-2.69-35.15-8.47-51.74-18.51M887.02,648.25c9.39,6.83,18.79,13.65,28.15,20.51,4.71,3.45,6.7,7.92,3.57,13.27-2.94,5.03-7.66,7.23-13.02,4.27-4.07-2.24-6.75-1.22-9.89,1.36-9.16,7.51-18.43,14.88-27.69,22.26-33.8,26.9-67.73,53.64-101.37,80.73-19.85,15.98-32.2,36.24-33.73,62.37-1.34,22.93-3.03,45.84-8.41,68.28-.52,2.16-2.05,4.79.64,6.29,2.91,1.63,4.72-.99,6.39-2.8,1.4-1.52,2.44-3.38,3.59-5.11,4.53-6.82,7.13-14.6,10.91-21.78,4.63-8.8,13.78-9.52,19.56-1.67,5.91,8.04,11.79,16.12,17.68,24.17,3.19,4.36,6.39,8.72,9.97,13.61,1.71-4.87,1.86-8.79,2.07-12.74,1.08-20.22-3.42-39.67-7.9-59.15-6.54-28.47.81-44.54,26.57-57.9,13.81-7.17,27.83-13.94,41.66-21.07,36.95-19.03,74.56-36.87,109.44-59.69,10.36-6.78,20.27-14.29,25.08-26.32,7.05-17.62,2.26-33.79-7.14-49.02-8.82-14.29-19.82-26.92-31.1-39.29-34.91-38.27-71.91-74.58-106.05-113.59-10.12-11.56-21.54-21.88-35.07-29.47-31.25-17.52-63.18-7.53-78.73,24.79-9,18.7-11.69,38.42-8.48,59.02,4.73,30.32,26.17,53.58,55.27,59.26,2.84.55,6.67,2.97,8.2-1.93,1.32-4.21,4.2-8.64-1.29-12.39-4.21-2.88-8.19-6.12-12.11-9.39-4.49-3.75-5.81-8.34-2.55-13.57,2.93-4.7,8.74-5.95,14.14-3.06,1.62.87,3.1,2.04,4.56,3.19,32.11,25.31,64.2,50.63,97.07,76.57M482.54,611.74c4.91-1.27,11,.47,13.98-5.66,6.33-13.01,14.85-24.64,22.87-36.6,5.64-8.41,11.07-16.96,14.78-26.71-.99,0-1.53-.17-1.83.03-1.54,1.03-3.03,2.13-4.52,3.24-17.4,12.96-35.65,24.4-56.29,31.57-7.63,2.65-13.14.85-15.31-4.86-2.15-5.66.76-10.72,8.27-13.69,20.05-7.93,38.16-19.15,55-32.47,26.61-21.02,51.42-44.21,78.4-64.8,23.18-17.68,47.96-31.4,76.96-37.43,20.45-4.25,40.14-11.59,59.52-19.46,6.73-2.73,13.65-5.8,16.08-14.39-5.39-.44-9.85-1.73-11.28-7.12-1.74-6.53,3.59-9.22,8.56-13.23-5.74-.79-10.94,1.14-14.57-3.49-3.68-4.7-.83-8.95.75-13.35-14.85-.88-16.67-3.66-11.96-17.96-5.18-3.09-10.63-2.11-16.04-.91-17.85,3.96-32.5,13.91-45.23,26.29-21.91,21.3-46.27,37.99-74.82,49.67-42.76,17.49-84.66,37.13-124.95,59.87-25.3,14.28-50.18,29.34-70.54,50.55-9.89,10.3-16.82,22.38-17.9,36.87-1.65,21.98,10.76,39.06,34.6,48.21,24.13,9.26,49.1,8.82,75.46,5.83M790.74,662c-2.28,6.08-4.57,12.16-6.85,18.25-8.14,21.72-17.04,43.24-20.53,66.35-.92,6.08-3.33,12.44-.22,20.04,40.42-31.4,79.94-62.34,118.43-94.42-3.97-5.89-67.71-56.55-74.09-59.11-5.45,15.97-10.9,31.92-16.75,48.89M789.29,116.87c8.28-14.47,10.29-29.77,4.91-45.56-7.02-20.58-21.42-33.39-42.88-37.33-20.22-3.71-36.97,3.21-50.2,18.64-5.45,6.36-5.15,7.33,1.63,11.61,22.15,13.98,38.94,32.75,50.23,56.38,2.77,5.79,5.1,11.8,7.75,17.96,12.47-3.26,21.22-10.74,28.57-21.7M622.85,469.16c-19.04,14.57-40.53,26.41-52.61,48.61-5.14,9.45-11.66,18.19-14.95,28.89,29.9-.61,90.99-58.22,101.68-95.52-12.41,3.63-22.72,10.8-34.12,18.02h0Z"/>
  <path d="M820.96,303.99c-5.36,7.34-10.38,14.31-15.52,21.2-4.23,5.67-10.15,6.83-15.1,3.12-4.67-3.49-5.5-9.18-1.45-14.82,11.93-16.59,23.99-33.09,36.24-49.45,4.15-5.54,9.92-6.34,14.64-2.85,4.57,3.38,5.56,9.49,1.73,14.92-6.55,9.3-13.48,18.33-20.55,27.87h.01Z"/>
  <path d="M848.89,358.6c-5.61,2.87-10.71,5.62-15.93,8.12-6.43,3.09-11.41,1.67-14.16-3.81-2.57-5.13-.76-10.97,5.06-14.07,14.51-7.73,29.17-15.17,43.77-22.74,3.49-1.81,6.88-3.84,10.45-5.48,6.34-2.91,12.54-1.11,14.92,4.1,2.55,5.59.38,10.98-5.96,14.27-12.54,6.51-25.12,12.92-38.15,19.6h0Z"/>
  <path d="M836.69,411.1c-4.01-3.87-4.77-7.96-2.7-12.45,2.14-4.65,6.27-5.85,10.96-5.85,17.64,0,35.28-.09,52.92.05,7.31.06,11.76,4.05,11.89,10.01.13,5.89-4.47,10.08-11.63,10.12-18.1.11-36.21.04-54.31.07-2.36,0-4.64-.24-7.13-1.95h0Z"/>
  <path d="M948.9,451.43c3.99-2.45,7.43-4.85,11.12-6.77,5.57-2.89,11.06-1.48,14.06,3.23,3.03,4.77,2.02,10.34-3.49,13.85-14.86,9.45-29.9,18.64-45.02,27.67-5.04,3.01-9.94,2.13-13.35-3.01-3.06-4.6-1.78-10.72,3.27-14,10.88-7.07,21.97-13.83,33.41-20.98h0Z"/>
  <path d="M920.57,899.58c-1.24,8.66-4.68,11.85-12.42,10.93-16.57-1.98-33.11-4.2-49.62-6.62-7.39-1.08-10.98-5.64-10.07-11.63.96-6.29,5.99-9.48,13.62-8.46,16.09,2.16,32.16,4.46,48.26,6.56,5.43.7,9.2,2.95,10.23,9.22h0Z"/>
  <path d="M939.23,509.63c18.15-3.34,35.99-4.34,53.79-5.57,5.58-.39,9.42,2.9,9.96,8.61.53,5.63-2.44,9.79-7.99,10.49-17.03,2.13-34.12,3.86-51.2,5.49-4.58.44-8.34-1.89-9.8-6.32-1.71-5.16-.32-9.63,5.25-12.7h-.01Z"/>
  <path d="M854.17,843.11c13.04-4.31,25.57-8.46,38.08-12.64,3.32-1.11,6.69-2.06,10.21-1.44,4.83.85,7.18,4.39,7.6,8.77.53,5.6-2.82,9.14-7.9,10.88-12.48,4.27-25.01,8.38-37.53,12.55-2.2.73-4.41,1.42-6.62,2.1-5.94,1.84-10.61.28-13.22-5.52-2.36-5.24.2-10.43,6.28-13.5.82-.42,1.71-.7,3.1-1.2h0Z"/>
  <path d="M859.9,952.2c-4.94-3.5-9.51-6.66-14.01-9.94-5.9-4.3-7.46-10.04-4.17-14.91,3.31-4.91,9.43-5.82,15.3-1.79,12.79,8.78,25.49,17.71,38.11,26.74,5.44,3.88,6.62,9.81,3.34,14.5-3.12,4.46-9.66,5.64-14.91,2.13-7.89-5.27-15.52-10.94-23.66-16.73h0Z"/>
</svg>