<?xml version="1.0" encoding="UTF-8"?>
<svg id="Layer_1" xmlns="http://www.w3.org/2000/svg" version="1.1" viewBox="0 0 1366 1024">
  <!-- Generator: Adobe Illustrator 29.7.1, SVG Export Plug-In . SVG Version: 2.1.1 Build 8)  -->
  <path d="M438.62,922.12c1.29,5.83.25,10.18-5.56,11.86-4.72,1.37-8.37-1.63-10.36-8.27-9.45-31.39-10.25-63.26-6.31-95.64,4.66-38.33,16-75.09,24.87-112.45,7.39-31.13,7.26-62.59,3.73-94.18-3.72-33.25-7.99-66.49-6.51-100.06,1.08-24.35,4.11-48.4,13.23-71.32,12.1-30.39,34.54-46.74,66.89-50.34,13.41-1.49,27-.87,40.26-4.03,22.85-5.44,29.12-25.43,27.91-43.43-.17-2.56-2-4.03-3.81-5.44-20.31-15.92-33.86-36.39-40.85-61.18-.83-2.94-2.73-3.83-5.15-4.71-26.24-9.54-35.07-45.86-15.92-65.97,2.74-2.88,3.35-5.88,3.4-9.55.23-15.98-1.6-32.12,2.17-47.87,11.11-46.4,38.41-78.5,84.24-93.67,5.16-1.71,7.58-4.16,8.75-9.61,4.84-22.63,24.85-40.44,49.2-43.51,27.54-3.47,50.72,4.75,66.85,28.21,11.64,16.94,13.25,35.5,6.06,54.74-1.17,3.12-1.63,5.63.78,8.57,21.1,25.71,28.94,55.62,27.66,88.36-.11,2.91.08,5.83-.11,8.73-.5,7.59.95,13.97,5.67,20.74,14.24,20.43,3.37,52.23-19.95,60.6-3.18,1.14-4.63,2.93-5.51,5.95-7.17,24.53-21.04,44.57-40.9,60.51-2.1,1.68-3.22,3.48-3.47,6.23-2.27,25.7,11.42,41.96,37.16,43.98,9.94.78,19.89,1.48,29.82,2.38,39.93,3.6,64.8,24.52,73.88,63.65,7.53,32.42,7.72,65.43,5.96,98.57-1.92,36.09-7.84,71.92-6.66,108.2.85,26.12,6.66,51.39,12.84,76.6.49,2.02,1.06,4.01,1.56,6.03,1.79,7.33-1.35,12.82-8.57,15.28-3.44,1.17-4.5-.79-5.18-3.5-8.31-33.27-16.59-66.44-16.7-101.19-.1-32.94,4.51-65.49,6.06-98.27,1.57-33.26,2.19-66.56-5.76-99.26-7.45-30.66-29.95-49.25-59.84-49.38-1.53,8.83.17,17.63,1.31,26.33,2.1,16.11,8.16,30.78,16.89,44.53,15.74,24.81,21.83,51.9,17.43,81.08-1.96,12.98-6.89,24.84-15.42,34.93-2.47,2.92-3.44,5.84-3.6,9.56-1.22,27.71,3.52,54.13,15.65,79.28,6.8,14.09,11.04,29.05,12.53,44.79.96,10.14,0,20.03-3.08,29.54-2.09,6.42-1.86,11.92,1.41,17.74,2.02,3.6,2.94,7.81,4.9,11.44,3.33,6.16,1.95,11.47-1.87,16.76-3.47,4.8-7.15,4.65-9.73-.83-1.59-3.37-2.6-7.02-4.02-10.48-1.08-2.63-1.57-5.62-4.54-7.9-18.19,19.89-42.34,28.59-67.51,35.06-14.7,3.78-29.7,6.23-44.83,7.52-36.83,3.14-73.53,2.37-109.9-4.74-21.31-4.16-41.99-10.27-60.81-21.56-7.52-4.51-14.11-10.16-20.32-16.87-3.59,3.14-4.27,7.17-5.59,10.69-2.55,6.81-4.6,13.8-6.97,20.68-1.26,3.66-.74,5.81,3.61,6.64,45.81,8.77,84.42,31.85,120.13,60.67,9.23,7.45,18.52,14.82,28.59,21.11,12.66,7.92,22.09,7.38,33.61-2.34,13.67-11.53,26.37-24.18,40.84-34.77,25.25-18.47,52.7-32.47,82.88-40.97.6-.17,1.22-.26,1.82-.45,4.13-1.3,8.01-1.34,10.18,3.13,1.6,3.31-2.1,11.58-5.71,12.53-46.43,12.32-84.01,39.16-118.18,71.66-3.64,3.46-7.75,6.46-12.38,8.31-5.53,2.21-7.89,6.33-8.99,11.74-2.13,10.52-.72,21.16-1.09,31.73-.08,2.29-.03,4.58-.05,6.86-.04,4.99-2.66,8.04-7.51,8.16-4.89.11-7.72-3.04-7.99-7.83-.32-5.6-.16-11.23-.19-16.84-.02-3.95-.18-7.91.03-11.85.58-10.9-2.72-18.78-13.4-24.18-13.93-7.04-25.56-17.77-37.81-27.43-29.68-23.4-61.66-42.57-98.85-51.31-17.36-4.08-15.03-5.66-17.42,12.38-3.95,29.87-2.56,59.72,3.87,89.27,1.81,8.34,4.21,16.49,6.61,24.65,1.07,3.63,1.69,7.36-1.24,10.62-4.49,4.99-11.56,2.94-13.83-4.34-5.08-16.29-9.02-32.86-11.31-49.78-4.98-36.72-2.51-72.96,7.35-108.68,3.94-14.25,8.9-28.14,15.06-41.58,1.82-3.97,2.07-7.62.79-11.94-7.47-25.2-3.53-49.65,7.31-72.78,12.56-26.79,18.78-54.47,16.93-83.99-.2-3.17-.5-5.96-2.69-8.63-15.52-18.89-19.26-41-16.91-64.55,2-20.03,9.2-38.26,20.15-55.1,12.69-19.52,16.72-41.36,16.81-64.2,0-1.24.04-2.52-1.53-4.02-20.62,1.68-37.88,9.83-48.99,28.64-9.94,16.83-13.8,35.56-16.15,54.6-4.56,37.01-1.18,73.81,3.51,110.57,6.4,50.2,1.88,99.33-12.68,147.93-10.92,36.47-17.7,73.91-17.1,112.29.26,16.91,2.98,33.46,8.22,50.11M772.12,649.52c-.76-8.96-1.52-17.92-2.35-27.7-22.78,9.23-45.32,7.51-67.87,4.47-34.36-4.64-68.68-5.7-103.13-.68-18.51,2.7-37.13,4.45-55.89,1.75-6.54-.94-12.64-3.62-18.87-4.74-1.75,2-1.33,3.95-1.38,5.77-.58,23.76-5.33,46.52-15.42,68.19-4.82,10.34-8.85,21.06-11.33,32.3-7.05,31.93,4.31,56.97,33.05,71.87,5.89,3.05,12.02,5.82,18.32,7.84,55.3,17.71,111.5,18.69,168.17,8.27,19.08-3.51,37.63-8.9,54.38-19.19,19.46-11.96,29.56-29.06,29.38-52.2-.12-15.14-4.65-29.09-10.52-42.68-7.28-16.85-13.97-33.82-16.55-53.26M787.08,578.93c1.1-4,2.58-7.93,3.23-12,3.88-24.3-1.48-47.07-14.5-67.36-15.16-23.64-21.75-49.14-21.71-76.77,0-4.16-.83-6.54-5.76-6.72-4.82-.18-6.24,1.78-6.25,6.13,0,2.68-.58,5.36-.96,8.04-6.02,42.03-30.66,73.49-70.91,83-44.82,10.59-96.75-9.31-113.19-62.31-2.78-8.97-4.69-18.07-5.23-27.47-.21-3.65-.24-7.49-6-7.46-5.36.02-6.18,2.83-6.22,7.06-.02,2.49-.44,4.96-.57,7.45-1.18,23.19-6.48,45.05-19.3,64.88-13.87,21.43-20.6,44.91-16.83,70.55,3.45,23.46,17.02,42.79,45.61,45.98,15.95,1.78,31.52-.24,47.13-2.28,31.24-4.08,62.4-4.92,93.78-1.06,18.46,2.27,36.93,5.82,55.8,3.23,20.12-2.76,34.32-12.7,41.89-32.87M561.12,219.31c-2.97.84-6.55.03-7.18,5.07-1,8.07-6.35,10-13.32,5.41-5.28-3.48-8.97-2.72-11.31,3.14-3.34,8.33-2.86,16.82,1.47,24.68,3.43,6.22,8.21,10.88,16.18,10.91,5.88.02,8.06,4.16,9.16,9.28,3.15,14.68,9.63,27.81,18.71,39.71,25.52,33.48,67.26,46.02,103.8,30.4,31.35-13.39,49.46-38.22,57.84-70.61,1.31-5.07,3.55-8.16,8.86-8.91,16.17-2.28,25.76-22.21,17.54-36.32-3.02-5.19-6.19-5.94-10.93-2.33-2.68,2.04-5.41,3.16-8.64,1.67-3.37-1.55-5.37-4.5-4.92-7.97.57-4.44-1.77-6.26-4.97-8.21-20.61-12.54-37.33-29.05-50.09-49.54-.75-1.21-1.3-2.64-3.52-3.34-32.07,33.1-71.29,52.38-118.68,56.95M712.84,177.42c11.43,12.09,24.33,22.12,39.87,29.44.6-2,1.12-2.97,1.14-3.95.18-9.97.39-19.92-.66-29.9-6.95-66.49-64.87-105.52-124.8-94.29-63.48,11.9-94.15,69.79-87.28,129.91,3.29-3.81,7.41-4.74,11.87-5.02,4.76-.3,9.54-.69,14.25-1.46,47.21-7.73,86.48-28.52,113.57-69.26,3.74-5.62,8.13-7.18,12.42-4.5,4.09,2.56,4.92,7.57,1.35,13.19-2.38,3.74-2.07,6.79-.09,10.38,4.96,8.96,10.92,17.18,18.35,25.44M674.6,495.25c10.45-3.95,19.78-9.66,27.6-17.7,16.4-16.85,22.6-37.8,24.41-60.55.3-3.75-1.78-4.98-4.8-6.1-16.8-6.22-26.6-18.47-30.59-35.75-.97-4.18-.74-8.64-2.98-13.2-28.22,12.17-56.52,11.45-84.45-.09-.57.94-.93,1.28-.96,1.64-1.93,21.94-10.94,39.04-32.53,47.49-2.38.93-2.92,2.68-2.86,4.94.61,21.81,5.91,42.22,20.91,58.62,23.56,25.76,53.05,29.42,86.24,20.7M637.65,60.6c1.02.11,2.06.38,3.07.3,27.46-2.08,52.62,4.64,75.7,19.54,3.25,2.1,5.84,5.32,10,6.2,2.26-2.55,2.58-5.63,2.79-8.71,1.4-20.39-10.79-38.47-30.7-45.56-21.37-7.62-45.48-1.46-56.73,14.8-2.6,3.76-6.15,7.49-4.13,13.43Z"/>
  <path d="M826.21,824.78c20.41-39.72,51.88-64.31,95.43-72.79,72.57-14.13,142.49,32.4,155.92,104.78,12.49,67.3-27.34,129.77-90.84,149.33-66.52,20.49-142.52-14.12-166.03-76.92-13.2-35.26-11.44-70.1,5.52-104.41M874.18,790.83c-21.37,17.32-35.94,39.18-42.22,65.98-8.23,35.07-2.08,67.8,21.22,95.48,37.69,44.76,101.03,56.19,152.19,27.54,65.14-36.46,76.97-123.28,27.65-176.08-41.91-44.87-107.24-49.97-158.84-12.92h0Z"/>
  <path d="M398.97,606.71c-6.8-20.37-18.27-37.27-32.38-52.56-1.13-1.22-2.38-2.34-3.4-3.65-2.87-3.68-3.71-7.61-.07-11.19,3.62-3.56,7.66-2.95,11.14.26,7.34,6.8,13.8,14.42,19.59,22.56,17.83,25.07,27.71,52.86,27.72,83.78.01,35.15-12.67,65.66-34.7,92.58-3.41,4.17-7.1,8.16-10.98,11.91-4.84,4.69-9.11,5.09-12.6,1.73-3.67-3.54-3.32-8.31,1.4-13.06,15.79-15.87,27.88-34.07,34.89-55.4,8.39-25.51,7.91-51.06-.63-76.98l.02.02Z"/>
  <path d="M901.91,559.63c5.57-7.03,10.92-13.66,17.23-19.43,3.75-3.43,7.82-4.97,12.16-1.04,3.64,3.29,3.4,8.18-1.04,12.58-15.9,15.75-28.23,33.79-35.38,55.07-12.66,37.68-7.69,73.26,13.66,106.61,3.69,5.75,8.07,11.07,12.23,16.51,4.15,5.41,3.19,7.95-3.23,9.56-6.38,1.59-10.62-.08-14.78-5.56-20.01-26.37-31.16-55.84-30.87-88.97.28-31.49,10.88-59.78,30.01-85.32h.01Z"/>
  <path d="M923.06,636.92c6.56-6.98,12.74-13.72,19.09-20.29,4.41-4.56,9.09-5.04,12.46-1.32,3.92,4.34,2.32,8.39-1.16,12.11-3.48,3.73-7.03,7.4-11.39,11.97,17.94,0,34.5-.01,51.06.01,2.49,0,5.01-.02,7.45.35,4.42.68,7.39,3.37,7.39,7.88,0,4.82-3.1,7.73-7.86,8.04-5.38.35-10.79.16-16.19.17-13.02.01-26.05,0-40.11,0,2.48,5.11,6.08,7.91,9.07,11.17,4.66,5.11,5.15,9.51,1.36,13.05-3.48,3.25-7.94,2.62-12.48-2.06-6.51-6.71-12.96-13.47-19.27-20.36-8.91-9.73-8.83-10.6.57-20.75v.03Z"/>
  <path d="M348.8,681.07c-4.8,2.04-8.19.74-10.47-3.24-2.26-3.95-.46-7.1,2.3-10.04,3.22-3.44,6.86-6.55,9.28-10.83-2.24-1.8-4.61-1.07-6.76-1.08-14.75-.08-29.5-.01-44.25-.09-2.46-.01-5.03-.15-7.36-.86-3.82-1.16-5.68-4.04-5.35-8.1.31-3.85,2.59-6.07,6.29-6.64,2.86-.44,5.78-.66,8.68-.68,13.71-.09,27.42-.04,41.13-.12,2.42-.01,4.95.6,7.7-1.01-2.42-4.19-5.91-7.35-9.08-10.76-4.36-4.7-4.79-9.15-1.01-12.47,4.5-3.96,8.49-2.1,11.98,1.56,7.89,8.26,15.73,16.57,23.47,24.97,3.45,3.74,3.71,7.94.15,11.73-8.67,9.23-17.51,18.29-26.71,27.66h0Z"/>
  <path d="M630.09,736.91c.76-4.76,3.73-6.72,7.58-7.72,6.13-1.59,12.27-1.47,18.36.15,4.49,1.19,7.44,3.93,6.84,8.87-.62,5.11-4.27,6.78-8.96,6.38-4.96-.42-9.89-.35-14.85-.02-5.07.34-8.32-1.9-8.97-7.66h0Z"/>
  <path d="M958.52,789.3c40.16-2.06,69.25,30.62,64.03,69.76-5.45,40.93-24.06,73.8-56.58,98.96-11.17,8.64-23.44,14.92-37.67,16.9-30.92,4.31-71.72-24.25-69.11-58.5,1.39-18.31,9.36-34.32,18.89-49.61,7.05-11.32,15.07-21.92,24.41-31.48,1.78-1.82,3.15-3.82,4.09-6.18,9.3-23.35,26.41-36.64,51.94-39.83M993.47,905.2c1.3-2.67,3.06-5.17,3.61-9.07-14.28,7.54-28.86,8.79-43.77,8.04-8.71-.44-17.42-.96-26.13-1.33-3.94-.17-7.9-.11-11.84-.08-4.54.04-8.6-.83-9.01-6.3-.41-5.4,3.24-7.1,7.89-7.6,1.55-.17,3.36.49,5.16-1.74-8.45-8.32-13.34-18.81-15.8-31.99-14.23,18.59-25.61,36.55-29.73,58.15-1.26,6.62-.39,13.26,2.64,19.46,12.26,25.09,44.29,35.54,68.59,22,20.68-11.52,36-28.53,48.39-49.55M999.58,875.03c18.09-23.51,9.41-55.48-18.42-67.81-19.41-8.6-41.96-2.4-54.97,15.11-11.91,16.04-11.25,38.59,2.22,54.1,7.23,8.32,15.95,13.82,27.97,13.85,16.11.04,31.15-1.66,43.19-15.25h.01Z"/>
  <path d="M982.54,822.13c3.72-1.12,6.34-.07,7.71,2.95,1.51,3.35-.22,6.06-2.66,8.27-5.1,4.63-13.09,4.46-18.87-.33-4.99-4.13-6.72-12.82-3.46-18.2,1.95-3.22,4.67-5.75,8.7-4.2,4.1,1.57,4.89,4.73,2.68,8.6-.76,1.33-1.15,2.88.29,3.94,1.88,1.38,3.53-.03,5.62-1.02h-.01Z"/>
  <path d="M949.62,861.25c1.09.66,1.82,1.12,2.61,1.27,3.91.75,7.16,2.52,5.78,7.01-1.43,4.63-5.36,5.29-9.65,3.92-3.46-1.1-6.36-3.01-8.38-6.11-2.23-3.43-3.41-7.09.51-9.9,4.29-3.07,6.82-.11,9.13,3.82h0Z"/>
  <path d="M966.62,851.81c.93-.85,1.54-1.55,2.28-1.74,2.13-.53,15.89,8.4,16.26,10.53.58,3.41-1.57,4.9-4.38,5.66-7.58,2.07-16.07-6.26-14.15-14.45h-.01Z"/>
  <path d="M938.34,840.81c-1.46-2.16-2.03-4.1-2-6.22.03-2.53,1.13-4.38,3.54-5.24,2.32-.82,4.09.3,5.24,2.16,1.32,2.16,2.57,4.12,5.35,4.65,3.41.65,5.11,2.95,4.1,6.29-.98,3.23-3.87,4.15-6.96,3.73-3.57-.49-6.59-2.23-9.28-5.38h.01Z"/>
</svg>