<?xml version="1.0" encoding="UTF-8"?>
<svg id="Layer_1" xmlns="http://www.w3.org/2000/svg" version="1.1" viewBox="0 0 1366 1024">
  <!-- Generator: Adobe Illustrator 29.7.1, SVG Export Plug-In . SVG Version: 2.1.1 Build 8)  -->
  <path d="M458.25,951.97c-4.25-7.15-3.78-14.9-4.89-22.23-8.79-58.43-2.61-115.73,14.15-172.04,10.77-36.19,15.98-72.95,12.95-110.66-1.52-18.92-3.73-37.78-5.56-56.68-4.1-42.44-4.97-84.78,9.32-125.7,13.06-37.42,37.79-54.51,77.36-56.21,10.79-.46,21.69-.63,32.3-3.59,22.73-6.35,28.31-27.45,27.04-45.29-.17-2.35-2.14-3.52-3.74-4.79-20.23-16.12-33.97-36.61-41.28-61.39-.86-2.93-2.49-4.66-5.38-5.43-24.1-6.44-37.84-47.59-15.48-67.59,2.63-2.36,2.11-5.29,2.09-8.13-.15-19.63-.78-39.33,5-58.42,12.72-42.03,39.33-71.12,81.08-85.53,6.36-2.19,9.59-4.79,11.28-11.84,5.3-22.16,20.68-35.05,41.93-41.53,26.22-8,55.44.77,72.13,22.4,13.44,17.41,16.73,37.06,9.42,57.93-1.87,5.34-1.66,8.99,2.04,13.54,18.99,23.37,26.29,50.81,26.87,80.41.08,4.18.17,8.36,0,12.54-.39,9.4.88,17.54,6.52,26.24,13.31,20.51,1.53,51.24-21.47,59.64-3.16,1.16-4.7,2.93-5.62,5.96-7.45,24.69-20.92,45.4-41.24,61.43-2.79,2.2-3.85,4.82-3.93,8.07-.6,22.77,9.69,39.21,34.37,43.11,10.37,1.64,20.82,1.63,31.21,2.28,44.25,2.78,71.94,27.4,79.67,70.9,6.15,34.57,6.85,69.23,3.93,104.14-2.36,28.27-5.78,56.47-6.52,84.88-.67,25.7,3.7,50.69,10.37,75.37,7.51,27.78,15.23,55.5,18.91,84.16,3.94,30.61,3.57,61.21.16,91.81-.9,8.08-2.11,16.12-3.17,24.18-.96,7.23-4.3,11.07-9.17,10.52-4.94-.55-7.53-5-6.53-12.15,2.91-20.89,5.01-41.81,5.39-62.95.65-36.45-5.08-71.91-14.7-106.93-6.96-25.35-14.51-50.65-16.45-77.02-1.64-22.31-.85-44.66,1.27-66.95,3.03-31.79,6.67-63.58,5.46-95.57-.76-20-2.1-40.04-7.37-59.53-7.07-26.12-23.43-42.25-50.41-47-1.64-.29-3.3-.43-4.95-.68-5.11-.8-7.11,1.15-7.03,6.5.33,23.13,6.05,44.62,18.85,64,12.77,19.33,19.57,40.69,20.02,63.67.4,20.4-3.94,39.89-17.17,56.37-1.82,2.27-2.35,4.71-2.74,7.45-5.38,37.94,1.22,74.08,13.79,110.02,15.91,45.5,29.24,91.91,36.05,139.77,5.89,41.4,2.37,82.44-8.48,122.83-.92,3.42-1.64,6.92-2.86,10.24-1.46,3.98-4.54,6.14-8.83,5.21-4.18-.91-6.39-3.91-6.15-8.24.12-2.27.67-4.54,1.27-6.74,11.33-41.19,14.53-82.93,8.57-125.31-.98-6.97-1.67-7.49-9.01-5.36-33.13,9.63-62.41,26.79-90.5,46.3-15.11,10.5-29.48,21.94-43.82,33.45-3.08,2.47-6.28,5.19-9.89,6.53-9.17,3.4-10.95,10.91-11.27,19.05-.4,10.22-.05,20.47-.14,30.71-.05,6.46-2.92,9.95-7.89,9.9-4.77-.04-7.76-3.75-7.84-10.12-.11-9.4.09-18.81-.09-28.21-.18-9.43-2.86-16.71-12.43-21.78-17.74-9.39-32.91-22.83-49.41-34.22-29.13-20.11-59.07-38.69-93.04-49.74-14.11-4.59-14.44-4.58-16.57,10.01-3.28,22.42-2.94,44.91-.33,67.41,2.17,18.71,6.16,37.02,11.01,55.19,1.47,5.49-1.05,10.39-5.88,11.24-5.36.95-8.22-2.19-9.49-6.95-6.7-25.05-11.66-50.39-13.17-76.35-2.62-45.1,7.76-88.03,19.36-131.18,9.44-35.11,23.16-68.85,31.26-104.29,5.28-23.09,4.45-46.42,1.77-69.76-.37-3.2-2.1-5.77-4.04-8.33-13.69-18.04-17.89-38.56-16.25-60.82,1.59-21.63,9.22-40.92,20.82-58.98,12.01-18.71,18.13-39.3,18.64-61.53.19-8.12-.93-8.9-9.05-7.64-28.52,4.43-45.06,21.89-52.89,48.66-9.51,32.52-10.53,65.78-8.1,99.31,2.27,31.42,6.75,62.65,7.65,94.18.94,32.98-6.36,64.6-15,96.11-10.24,37.34-17.96,75.18-17.09,114.15.47,21.05,2.16,42.08,5.74,62.9.71,4.1,1.38,8.48-2.66,11.52-3.28,2.47-6.59,2.19-10.07-.81M803.25,492.16c-9.58-19.7-13.91-40.6-14-62.39-.02-4.83-2.37-6.08-6.43-6.45-4.51-.41-4.37,2.71-4.67,5.67-.25,2.49-.67,4.96-.95,7.45-5.06,44.98-32.49,76.74-75.28,86.06-44.65,9.72-95.72-12.17-110.26-65.09-2.61-9.5-4.45-19.08-5.02-28.93-.16-2.68-.63-5.46-4.65-5.26-3.85.19-5.72,1.76-5.81,5.7-.09,3.75-.53,7.5-.8,11.24-1.67,22.68-7.89,43.85-20.48,63-14.1,21.45-21.69,44.77-18.29,70.62,3.43,26.12,17.85,44.46,44.75,48.18,13.83,1.92,27.56,1.33,41.13-.97,36.52-6.2,73-7.49,109.68-1.59,17.29,2.79,34.65,5.5,52.27,2.39,19.88-3.52,33.33-14.39,39.56-33.85,7.31-22.8,4.38-44.87-4.27-66.65-4.05-10.2-11.05-18.67-16.49-29.13M683.44,360.09c13.47.3,26.14-2.99,37.83-9.46,27.09-15.01,43.6-38.22,51.23-67.93,1.25-4.85,2.88-9.21,8.43-9.34,18.65-.42,24.25-23.57,19.42-35.54-2.73-6.76-6.94-7.89-13.04-3.55-2.58,1.84-5.23,2.79-8.15,1.33-3.02-1.51-5.38-4.37-4.67-7.5,1.26-5.58-2.28-7.35-5.85-9.59-19.94-12.49-36.29-28.66-49.26-48.28-1.19-1.8-1.79-4.34-4.67-4.82-5.6,5.23-10.98,10.78-16.9,15.69-30.31,25.13-65.21,39.17-104.41,42.48-3.36.28-5.1.99-5.66,4.88-1.15,7.94-7.1,10.14-13.52,5.5-5.43-3.93-9.78-2.47-12.46,4.17-3.98,9.87-.54,24.13,7.54,31.08,2.75,2.37,5.82,4.12,9.58,4.1,6.54-.04,9.96,3.27,10.92,9.63.4,2.66,1.27,5.27,2.06,7.86,10.91,35.81,46.11,70.81,91.6,69.29M654.79,851.34c30.29,4.39,60.02,2.34,88.85-8.34,32.52-12.04,62.14-29.63,91.26-48.18,3.47-2.21,4.01-4.73,3.1-8.42-2.93-11.97-6.17-23.87-10.51-35.4-13.74-36.45-23.86-73.51-20.67-113.04.13-1.58.44-3.39-1.62-4.99-3.42,1.01-7.14,2.22-10.91,3.22-21.79,5.76-43.54,2.61-65.25-.56-28.24-4.13-56.44-5.33-84.83-1.14-19.17,2.83-38.34,6.21-57.92,4.35-9.58-.91-18.78-3.21-27.83-6.72-1.23,3.92-.74,7.29-.42,10.55,2.55,26.24-2.01,51.55-9.67,76.5-6.73,21.94-15.46,43.24-20.94,65.61-1.3,5.29-.51,8.4,4.35,11.33,16.46,9.93,32.82,20.01,49.86,28.92,22.84,11.95,46.2,22.52,73.16,26.31M573.12,210.06c.4,1.32-.26,2.91,1.31,4.4,2.42-5.02,6.72-6.26,11.83-6.62,6.44-.45,12.88-1.27,19.23-2.45,46.1-8.57,84.22-29.87,110.63-69.73,3.86-5.83,8.06-7.45,12.34-4.84,4.2,2.56,4.97,7.51,1.29,13.19-2.51,3.87-2.36,7.04-.16,10.91,13.49,23.71,32.57,41.58,56.36,54.62,1.11.61,2.27,1.15,4.07-.34.36-10.92.36-22.29-.63-33.73-4.65-53.42-48.76-95.43-102.2-97.04-49.95-1.51-93.12,29.28-108.25,76.87-5.61,17.64-5.28,35.79-5.82,54.76M760.85,419.49c-23.78-8.82-34.3-27.11-35.94-52.11-29.61,13.23-58.58,12.36-87.78-.03-1.44,23.74-10.53,41.59-32.46,51.07-2.23.97-2.89,2.79-2.6,5.14.77,6.21,1.14,12.48,2.25,18.62,12.32,67.92,78.55,76.42,115.62,56.92,23.02-12.1,34.83-32.34,40.03-56.93,1.52-7.2,3.5-14.57.88-22.69M647.85,921c7.94,5.41,15.79,10.95,23.83,16.19,9.95,6.48,19.86,5.55,29.17-1.33,7.56-5.58,14.75-11.64,22.19-17.38,38.36-29.65,78.33-56.42,125.9-69.28,4.36-1.18,4.56-3.59,3.73-6.95-2.38-9.52-4.81-19.02-7.28-28.52-.41-1.57-.77-3.29-2.55-4.07-2.25.1-3.78,1.63-5.52,2.72-23.53,14.8-47.51,28.73-72.98,40.03-41.78,18.53-84.93,22.29-129.17,11.72-31.86-7.61-60.03-23.81-88.04-40.1-8.57-4.98-16.97-10.25-25.94-15.69-3.6,11.89-6.49,22.94-9.04,34.11-.95,4.18-.13,5.86,4.23,6.96,15.43,3.89,30.16,9.73,44.48,16.7,30.77,14.95,58.85,34.13,87,54.9M685.87,61.59c28.22.72,53.46,9.98,75.66,27.19,7.46-9.74,3.12-31.45-7.76-43.32-14.73-16.07-41.04-20.85-61.19-11.06-13.02,6.32-22.46,18.68-20.96,27.18,4.39,0,8.73,0,14.25.01Z"/>
  <path d="M369.17,678.81c12.41.73,24.27,1.42,36.13,2,11.49.57,14.3,5.85,8.51,15.86-2.46,4.26-5.52,8.27-6.82,13.61,5.46,1.28,10.55.36,15.64-.03,4.78-.36,9.56-.66,14.35-.82,4.43-.15,7.26,2.14,7.75,6.49.48,4.26-1.61,7.52-5.89,8.32-5.51,1.03-11.13,1.5-16.72,2.06-9.12.91-18.26,1.67-27.38,2.54-4.16.39-7.95-.07-10.49-3.93-2.48-3.77-.93-7.13,1-10.52,3.16-5.56,7.18-10.67,9.68-17.17-5.53-1.72-10.85-1.86-16.2-2.05-4.57-.17-9.13-.78-13.7-1-5.18-.25-8.48-2.55-8.39-7.96.09-5.57,4.05-7.27,8.87-7.64,1.03-.08,2.08.11,3.67.26v-.02Z"/>
  <path d="M1002.36,694.02c-10.54,1.98-20.92.32-31.3,3.05,1.9,6.24,5.97,11.06,8.99,16.42,2.09,3.71,4.38,7.44,1.53,11.63-2.92,4.31-7.34,3.85-11.86,3.38-11.81-1.23-23.65-2.19-35.48-3.29-2.27-.21-4.61-.34-6.78-.96-4.49-1.29-6.45-4.46-5.59-9.07.83-4.41,3.79-6.34,8.13-6.05,7.49.49,14.96,1.17,22.45,1.65,2,.13,4.15.78,6.39-.9-.91-4.93-4.39-8.68-6.79-12.93-5.63-9.98-2.73-15.5,8.57-16.17,12.9-.75,25.8-1.62,38.7-2.33,4.81-.27,8.91,1.14,9.85,6.53.84,4.82-1.13,8.14-6.82,9.04h0Z"/>
  <path d="M919.63,657.24c7.32-5.22,14.29-10.16,21.38-14.92,3.44-2.31,3.94-4.58.67-7.35-.16-.13-.3-.29-.44-.44-12.11-12.96-12.01-13.87,2.89-24.25,8.89-6.2,17.79-12.39,26.69-18.57,1.37-.95,2.7-2,4.2-2.71,4.24-2,8.27-1.8,10.99,2.45,2.72,4.25,1.43,8.06-2.51,10.86-7.81,5.55-15.74,10.94-23.59,16.45-2.01,1.41-4.32,2.56-5.46,5.08,1.22,4.1,5.02,5.95,7.73,8.7,5.79,5.87,5.5,10.73-1.33,15.45-9.78,6.74-19.7,13.28-29.52,19.96-3.61,2.45-7.28,3.43-10.86.31-3.52-3.08-3.63-6.79-.83-11v-.02Z"/>
  <path d="M427.63,644.12c5.59,3.72,10.82,7.16,15.96,10.73,5.01,3.48,6.21,7.64,3.54,11.66-2.65,3.99-7.12,4.74-12.1,1.52-10.34-6.69-20.6-13.49-30.75-20.46-5.87-4.03-6.21-8.95-1.45-14.25,6.21-6.91,5.5-13.06-2.14-18.45-5.8-4.09-11.63-8.13-17.43-12.22-4.17-2.94-5.76-6.83-2.9-11.32,2.97-4.66,7.42-4.43,11.49-1.68,12.44,8.43,24.81,16.96,37.01,25.73,5.51,3.96,5.62,8.82.95,13.88-1.27,1.38-2.69,2.62-4.02,3.95-3.95,3.95-3.34,7.59,1.83,10.92h.01Z"/>
  <path d="M576.82,797.81c-1.24-4.41-1.82-8.68-.74-12.3,2.81-9.39-.49-18.05-1.89-26.98-1.73-10.97-.49-21.67,3.66-31.93,1.25-3.1,1.49-5.6.3-8.86-6.07-16.58-4.72-32.94,3.47-48.41,7.71-14.58,21.25-20.1,36.89-20.93,9.37-.49,18.79-.24,28.18.11,8.03.3,11.38,3.85,11.27,11.89-.29,20.44-1.01,40.78-6.8,60.7-1.67,5.74.8,12.25.08,18.58-1.49,13.04-3.57,26.26-2.72,39.24.88,13.39,4.84,26.6,7.63,39.85,3.78,17.99,1.6,21.14-16.65,20.53-21.72-.73-40.91-7.72-55.01-25.28-3.7-4.6-6.29-9.84-7.65-16.2M639.67,704.89c1.36-11.6,2.76-23.19,2.93-34.91.07-4.64-1.6-6.4-6.19-6.22-6.47.25-12.96-.18-19.42.22-10.73.68-19.34,4.98-23.69,15.55-3.78,9.18-3.83,18.73-2.61,28.36.49,3.86,2.74,5.75,6.84,5.71,10.86-.1,21.74-.31,32.58.15,6.02.25,9.05-1.82,9.55-8.86M591.89,732.16c-4.08,10.05-3.59,20.32-1.57,30.7.86,4.42,3.57,6.75,7.72,8.04,10.15,3.16,20.56,2.88,30.98,2.57,3.13-.09,4.3-1.92,4.52-4.84.79-10.79,1.52-21.59,2.56-32.36.5-5.16-1.8-6.57-6.46-6.5-10.42.16-20.84.04-31.25.07-2.07,0-4.21-.11-6.5,2.32M636.27,798.24c-1.03-3.49.49-9.21-5.24-9.1-13.33.25-26.54-.09-39.27-3.59-1.87,3.05-1.18,5.48-.6,7.9,3.78,15.78,30.29,32.95,46.64,30.34,3.32-.53,3.38-2.42,2.83-4.95-1.41-6.51-2.8-13.03-4.37-20.61h0Z"/>
  <path d="M714.15,795.35c5.31-18.07.79-35.69.33-53.27-.15-5.82-1.32-11.62.12-17.42.37-1.51,0-2.82-.43-4.25-6.36-20.62-6.87-41.87-6.49-63.18.09-5.14,3.78-8.23,8.56-8.43,13.94-.59,27.92-1.99,41.79,1.29,18.69,4.42,27.67,17.53,31.51,35.07,2.46,11.23,2.08,22.44-2.39,33.23-1.03,2.49-1.1,4.68-.06,7.19,6.37,15.34,5.99,30.89,1.04,46.5-.52,1.63-.79,3.14-.41,4.87,4.73,21.35-3.17,39.31-22.2,50.97-14.96,9.17-31.27,12.47-48.59,11.34-7.21-.47-10.55-5.42-9.02-13.37,1.93-10.03,4.08-20.02,6.25-30.55M724.52,695.36c.47,3.93,1.08,7.85,1.37,11.79.33,4.58,2.44,6.65,7.18,6.56,11.46-.21,22.93-.35,34.39-.1,5.26.11,7.15-2.64,7.57-7.05.69-7.28.7-14.53-1.11-21.73-3.04-12.14-10.71-19.27-23.03-20.52-8.05-.82-16.24-.34-24.36-.42-3.27-.03-4.52,1.71-4.03,4.81,1.33,8.46.15,17.1,2.02,26.65M751.18,729.87c-5.43,0-10.86.05-16.29-.03-3.51-.05-5.66,1.13-5.37,5.06.85,11.44,1.69,22.87,2.5,34.31.19,2.74,1.5,4.19,4.31,4.28,10.66.34,21.28.58,31.65-2.69,3.77-1.19,5.99-3.52,6.98-7.27,2.38-9.08,2.02-18.15.18-27.27-.94-4.66-3.46-6.72-8.3-6.46-4.79.27-9.6.06-15.66.06M764.98,808.94c6.46-6.2,10.08-13.5,9.1-23.59-13.34,4.02-26.59,4.11-39.89,3.81-3.3-.08-3.96,2.53-4.47,5.05-1.57,7.75-2.91,15.55-4.71,23.24-1.27,5.43,1,6.86,5.84,6.21,12.43-1.69,23.81-5.87,34.13-14.71h0Z"/>
  <path d="M690.58,703.6c-.06,3.09.07,5.62-.23,8.09-.51,4.21-2.81,7.04-7.26,7.18-4.51.14-7.01-2.66-7.49-6.84-.69-6.01-.74-12.08.03-18.1.51-3.94,2.8-6.66,7.01-6.62,4.02.05,6.72,2.42,7.41,6.36.53,3.05.37,6.22.52,9.93h0Z"/>
  <path d="M675.2,786.68c.13-2.23.07-3.92.44-5.52.83-3.62,3.19-5.99,6.93-6.07,3.99-.08,6.88,2.17,7.49,6.13.99,6.37.97,12.86-.04,19.22-.62,3.93-3.62,6.16-7.6,6.04-4.11-.12-6.47-2.9-6.89-6.79-.44-4.11-.26-8.29-.34-13.02h.01Z"/>
  <path d="M675.46,650.57c1.15-5,3.84-7.68,8.55-6.86,4.62.8,6.37,4.37,6.45,8.74.08,4.79.13,9.59-.14,14.37-.25,4.44-2.48,7.79-7.21,7.93-5.1.15-7.5-3.33-7.74-8.02-.27-5.19-.02-10.41.08-16.15h.01Z"/>
  <path d="M690.14,756.5c-1.79,4.33-4.49,6.91-8.83,5.89-4.55-1.07-6.01-4.73-6-9.09.01-4.58-.09-9.17.08-13.75.18-4.78,2.49-8.22,7.56-8.14,5.03.09,7.34,3.62,7.48,8.33.16,5.41-.09,10.83-.29,16.76Z"/>
  <path d="M675.21,831.65c.24-9.5,2.57-13.2,7.82-13.01,5.2.19,7.54,4.13,7.54,12.83,0,3.32.1,6.66-.21,9.96-.41,4.46-2.89,7.58-7.49,7.7-4.75.12-7.04-3.11-7.44-7.56-.28-3.09-.16-6.22-.22-9.92h0Z"/>
</svg>