<?xml version="1.0" encoding="UTF-8"?>
<svg id="Layer_1" xmlns="http://www.w3.org/2000/svg" version="1.1" viewBox="0 0 1366 1024">
  <!-- Generator: Adobe Illustrator 29.7.1, SVG Export Plug-In . SVG Version: 2.1.1 Build 8)  -->
  <path d="M180.69,581.7c2.85-28.43,9.2-55.15,21.3-80.3,17.82-37.04,48.37-55.28,88.36-59.64,9.02-.98,18.15-1.44,26.91-4.28,18.91-6.13,31.03-27.89,26.26-47.11-.68-2.73-2.44-4.42-4.39-6.08-19.08-16.33-32.74-36.26-39.7-60.49-1.12-3.9-3.36-5.25-6.81-6.55-28.42-10.7-38.19-51.55-17.57-74.01,3.57-3.89,3.93-7.85,3.77-12.48-.94-25.81.9-51.16,11.33-75.32,11.52-26.68,29.41-47.84,53.81-63.49,3.52-2.26,6.36-4.2,6.12-9.15-1.88-37.88,29.56-64.14,62.6-69.54,34.47-5.64,65.36,8,81.31,35.89,8.32,14.54,11.58,30.31,8.06,46.88-1.61,7.56-.48,13.15,5.05,19.12,23.46,25.3,31.88,56.51,33.38,90.05.43,9.65.88,19.38-.84,28.98-.68,3.83,1.04,6.35,3.36,9.11,19.3,22.88,9.96,61.8-17.68,73.22-4.7,1.94-7.11,4.77-8.72,9.45-7.66,22.25-20.06,41.46-38.13,56.7-4.32,3.64-5.97,7.64-5.94,13.26.16,27.02,14.93,42.03,43.73,44.13,20.15,1.47,40.38,2.67,59.5,10.12,40.43,15.77,59.68,47.82,65.63,88.65,5.06,34.7,3.62,69.86,3.78,104.86.1,21.88.02,43.77,1.22,66.03,8.83-5.32,18.79-5.04,26.16-11.33,6.22-5.31,15.42-2.34,22.34-7.43,4.33-3.19,5.16-5.5,3.78-10.36-4.41-15.47,1.44-27.74,15.84-34.29,5.7-2.59,11.38-5.26,17.22-7.52,13.64-5.27,28.85-.22,34.91,12.96,10.94,23.78,21.33,47.83,31.02,72.14,6.01,15.08-.72,29.12-15.48,35.91-2.58,1.19-5.33,2.04-7.86,3.32-12.39,6.29-24.79,8.49-38.1-.92-6.23,12.23-12.17,23.75-18.99,34.75-13.95,22.5-26.94,45.68-46.18,64.33-15.22,14.76-32.75,24.62-54.73,23.93-14.53-.45-26.76-6.81-38.23-16.63-1.1,4.08,1.08,6.16,2.31,8.4,18.26,33.29,26.19,69.5,30.36,106.79.13,1.13.01,2.28.1,3.41.53,7.05-1.4,12.71-9.27,13.82-5.9.83-9.56-4.38-10.47-12.8-1.11-10.17-2.83-20.28-4.12-30.44-.8-6.29-3.42-8.13-9.72-5.73-33.21,12.67-64.42,28.78-91.63,51.99-1.95,1.66-3.97,3.24-6.01,4.79-4.9,3.71-10.06,4.79-14.36-.44-4.14-5.04-2.77-10.41,1.62-14.53,5.6-5.25,11.56-10.14,17.65-14.81,25.76-19.76,54.39-34.18,84.8-45.26,11.16-4.07,11.31-4.2,7.3-15.15-3.09-8.43-5.59-17.2-11.18-24.89-48.22,33.16-102.09,41.7-158.19,41.25-55.95-.46-109.95-8.55-158.29-42.25-5.97,10.84-10.32,22.42-13.07,34.53-1.1,4.83,4.05,4.8,6.94,5.85,36.99,13.44,71.01,32.1,101.23,57.45,1.53,1.28,3.2,2.43,4.52,3.9,3.79,4.17,5.74,8.78,1.34,13.64-4.31,4.74-9.53,5.2-14.46,1.2-11.95-9.69-24.13-19.05-37.28-27.08-18.76-11.46-38.35-21.21-58.94-28.94-2.68-1-5.3-2.07-8.88-1.56-4.51,9.77-4.32,20.67-5.62,31.26-.41,3.38-.18,6.89-.96,10.17-1.28,5.34-4.96,8.53-10.57,7.82-5.97-.75-8.52-4.63-8.54-10.77-.05-21.85,4.69-42.95,10.07-63.88,4.69-18.24,11.49-35.75,20.81-52.21,1.38-2.44,3.23-4.77,2.93-7.86-2.49-25.06,5.98-47.84,15.74-69.98,12.5-28.34,14.34-57.66,11.24-87.8-.35-3.4-.46-6.82-.8-10.21-.9-9.06-3.43-17.07-8.62-25.18-20.1-31.41-20.77-65.38-9.8-100.08,3.52-11.13,8.74-21.53,14.58-31.73,13.27-23.17,16.03-48.68,15.78-75.93-18.19,2.84-31.73,11.75-42.65,24.44-19.3,22.44-26.02,50.21-31.23,78.35-6.54,35.33-4.46,70.94-1.55,106.38,3.81,46.39.22,91.85-10.78,137.16-10.81,44.57-16.2,90.05-17.52,135.99-.38,13.36-1.25,26.71-1.2,40.1.03,7.02-2.15,13.08-10.1,13.1-8.34.01-9.46-6.53-9.55-13.34-.92-65.44,5.89-130.11,21.51-193.61,11-44.71,9.95-89.6,6.53-134.85-1.93-25.5-3.89-51.09.63-77.35M535.84,787.34c-8.51-27.79-9.24-56.26-6.04-85.46-2.85.31-4.28.28-5.61.63-25.07,6.65-50.47,6.73-76.22,5.56-22.11-1-44.22-2.67-66.52-1.2-24.03,1.57-48.31,4.25-72.31-1.01-7.86-1.72-15.62-3.93-23.88-6.03,0,2.02-.11,3.12.02,4.2,3.88,33.85,2.03,66.89-12.05,98.65-7.03,15.84-13.07,32.09-15.15,49.62-1.61,13.56,2.31,24.02,13.91,31.47,15.76,10.12,33.13,16.39,51.11,21.03,41.54,10.74,83.79,12.66,126.25,8.15,28.95-3.08,57.28-9.28,83.56-22.69,22.24-11.34,27.33-21.73,22.91-46.18-3.54-19.57-12.83-37.04-19.96-56.74M373.46,567.69c-33.82-12.93-51.14-39.27-58.91-73.09-2.16-9.39-3.24-19.03-4.5-28.6-.81-6.11-4.06-6.42-9.04-5.05-5.11,1.4-4.43,5.24-4.43,8.85.02,32.12-6.21,62.24-23,90.5-14.04,23.63-18.35,50.13-11.3,77.41,8.39,32.46,28.94,48.79,62.55,50.03,20.2.75,40.38-.24,60.58-1.17,35.56-1.64,71.08,2.68,106.69,1.31,35.92-1.39,59.07-20.61,64.82-54.62,4.75-28.15-.76-54.39-14.98-78.78-10.4-17.86-15.4-37.11-17.6-57.42-1.07-9.93-1.72-19.83-1.51-29.79.09-4.25-.94-7.06-6.01-7.33-5.19-.28-7.26,2-7.51,6.86-.13,2.55-.61,5.08-.94,7.62-2.77,21.41-8.55,41.72-20.98,59.79-22.56,32.82-69.67,49.67-113.91,33.5M321.19,325.67c3.43,9.13,8.44,17.41,14.13,25.26,30.94,42.67,86.64,50.93,127.07,18.62,19.54-15.62,32.03-36.01,38.04-60.26,1.54-6.2,4.44-10.11,11.2-10.93,16.48-1.98,26.94-23.12,18.72-37.62-2.81-4.96-5.96-6.82-11.61-2.74-6.68,4.83-14.7,1.63-15.29-6.29-.43-5.69-3.29-7.85-7.36-10.14-19.93-11.25-36.3-26.33-48.86-45.53-1.65-2.53-2.72-5.69-6.39-7.14-1.33,1.18-2.85,2.38-4.2,3.75-12.22,12.45-25.46,23.53-40.99,31.76-22.36,11.85-45.9,19.68-71.18,22.29-3.98.41-9-.71-11.05,5.63-2.96,9.1-7.55,10.47-16.25,5.73-3.51-1.91-6.25-2.27-9.07.86-9.08,10.08-1.64,37.49,11.6,38.61,12.67,1.06,16.64,7.27,18.13,18,.42,3.05,1.89,5.95,3.37,10.14M559.57,793.09c7.92,17.57,12.54,36.58,24.28,52.48,12.51,16.94,30.66,23.53,49.25,16.84,11.59-4.17,20.69-11.9,28.72-20.86,21.66-24.14,36.75-52.62,52.76-80.49,9.85-17.15,5.87-33.33-2.94-49.27-1.52-2.75-3.42-5.71-7.22-4.68-3.57.97-3.19,4.22-3.14,7.09.05,3.12-.97,5.68-4.21,6.61-2.91.84-4.82-.89-6.5-3-1.95-2.46-3.95-5.37-7.65-4.04-3.64,1.3-3.84,4.58-3.29,7.88.53,3.17-.2,5.62-3.4,6.94-2.96,1.23-4.88-.37-6.67-2.35-1.99-2.21-4.18-4.26-7.35-2.59-3,1.58-3.26,4.37-2.43,7.41.91,3.34.51,6.3-2.97,7.96-3.32,1.59-5.27-.7-7.28-2.79-1.58-1.64-3.22-3.54-5.83-2.03-2.38,1.38-2.45,3.89-1.95,6.08.75,3.3,1.84,6.57,3.15,9.7,5.17,12.33,10.83,24.46,15.64,36.93,5.87,15.19-.81,30.18-15.69,36.52-5.76,2.45-11.52,4.91-17.39,7.06-13.14,4.82-28.97-1.08-34.79-13.85-10.49-23.04-20.68-46.23-30.26-69.66-6.52-15.96.49-31.05,16.28-37.76,4.45-1.89,9.02-3.56,13.31-5.77,9.55-4.91,18.64-3.77,27.66,1.35,2.09,1.19,3.73,3.62,7.27,2.77,0-3.64.22-7.32-.03-10.98-2.24-32.41-.63-64.9-2.01-97.29-.79-18.44-.25-36.97-2.93-55.36-6.49-44.65-30.22-71.51-70.27-79.65-6.88-1.4-9.37-.07-9.2,7.15.63,27.35,4.37,53.81,19.24,77.65,6.37,10.22,10.43,21.59,13.05,33.25,8.32,36.98,5.24,71.83-20.66,101.99-1.24,1.45-2.41,3.37-2.65,5.2-4.45,34.62-7.44,69.17,8.09,103.57M519.21,227.29c.1-9.38.84-18.81.2-28.14-2.41-34.91-15.32-64.88-44.52-85.6-50.48-35.81-115.02-24.57-151.99,25.5-20,27.07-26.01,57.39-22.7,90.57,5.5-1.14,10.42-2.27,15.53-2.71,51.93-4.53,94.52-25.53,123.16-70.68,3.04-4.79,6.81-8.03,12.65-5.91,6.05,2.2,6.94,7.58,5.21,12.76-1.68,5.03-.05,8.79,2.2,12.84,11.6,20.96,27.98,37.21,48.67,49.11,3.28,1.89,6.55,4.78,11.61,2.27M361.83,537.97c37.97,28.31,90.14,17.93,113.59-22.76,9.76-16.93,13.09-35.58,13.55-54.88.09-3.85-1.18-6.4-4.81-8.1-18.55-8.7-26.87-24.44-29.78-43.82-.41-2.74-.34-5.72-3.9-7.95-28.19,12.98-57.21,11.81-86.65-.16-1.28,23.42-10.28,40.85-29.72,52.05-2.45,1.41-3.7,3.49-3.62,6.3.82,29.79,6.52,57.69,31.35,79.31M468.27,48.76c-21.61-18.52-47.32-21.62-72.1-8.26-14.46,7.79-23.71,19.42-25.79,38.15,39.53-11.68,76.01-6.91,112.02,14.34,2.12-18.29-2.51-31.74-14.13-44.23M581.7,741.91c7.7,17.73,15.6,35.38,23.06,53.21,8.4,20.09,9.01,20.49,28.38,11.76,10.08-4.54,11.19-7.43,6.72-17.95-7.13-16.75-14.3-33.48-21.47-50.2-9.15-21.34-9.1-21.2-30.12-12.02-6.59,2.88-9.53,6.86-6.56,15.2M756.31,748.86c4.46-1.84,8.96-3.59,13.39-5.52,10.24-4.47,11.53-7.41,7.22-17.74-7.11-17.04-14.3-34.05-21.67-50.97-9.25-21.24-9.27-21.05-30.27-11.29-7.1,3.3-9.23,7.81-6.13,14.94,9.06,20.84,18.08,41.69,27.14,62.52,1.77,4.07,4.41,7.29,10.32,8.07h0Z"/>
  <path d="M1135.62,878.72c-50.7,34.8-106.68,44.99-166.27,39.58-41.83-3.79-80.7-16.18-114.98-41.14-3.05-2.22-5.52-1.5-8.67-.5-6.8,2.15-13.77-2.85-11.32-8.83,5.56-13.53,3.53-28.09,7.47-41.74,1.7-5.87,4.25-10.72,10.76-9.55,7.22,1.3,8.26,7.23,6.24,13.35-6.01,18.19.79,29.59,16.99,38.92,26.34,15.16,54.25,24.78,84.16,28.72,55.48,7.3,108.28-.24,156.91-29.59.24-.15.49-.29.73-.44,18.35-11.38,19.33-13.56,14.81-34.44-1.39-6.41-4.27-13.32,4.52-16.59,5.56-2.07,9.8,2.93,12.6,12.94,3.36,12.01,2.36,24.76,7.28,36.61,2.78,6.7-3.28,12.51-10.53,10.68-4.02-1.01-7.13-.95-10.71,2.02h0Z"/>
  <path d="M1028.73,76.45c16.89,6.83,29.56,17.11,35.43,34.31.64,1.87,1.15,3.81,1.48,5.76.87,5.07-.54,9.36-5.75,10.92-5.39,1.61-8.88-1.57-10.39-6.36-6.3-19.92-21.61-27.52-40.63-29.98-21.05-2.72-43.88,10.96-49.76,29.61-3.43,10.86-1.39,13.37,9.52,12.22,6.5-.69,13.05-1.2,19.58-1.32,6.24-.12,11.94,2.05,12.11,9.17.17,7.28-5.42,9.22-11.79,9.23-8.82,0-17.54.43-26.3,2.05-10.23,1.89-19.44-4.58-21.45-14.73-3.77-19.05,2.7-35.06,16.96-47.43,20.62-17.88,44.49-21.6,71-13.44h-.01Z"/>
  <path d="M832.99,887.38c8.99,1.17,9.26,6.89,7.92,13.32-2.57,12.31-4.55,11.07,8.79,16.31,36.51,14.34,70.92,32.16,98.97,60.37,1.6,1.61,3.29,3.16,4.72,4.92,3.72,4.55,4.25,9.49.09,13.84-4.52,4.72-9.42,3.15-13.5-.86-12.01-11.81-25.13-22.16-39.27-31.29-18.95-12.24-39.35-21.52-60.19-29.96-3.51-1.42-6.15-1.83-8.83,1.73-2.27,3.02-5.99,3.2-9.37,1.72-3.43-1.51-5.42-4.62-5.13-8.2,1.02-12.79,4.22-25.15,8.45-37.22.99-2.82,3.68-4.23,7.35-4.67h0Z"/>
  <path d="M1086.93,966.59c-12.63,8.36-23.97,17.37-34.09,27.81-4.25,4.38-8.82,6.91-14.02,2.22-5.25-4.74-4.25-10.06.17-15,15.13-16.95,33.52-29.71,52.89-41.24,17.18-10.22,35.57-17.81,54.14-24.92,6.01-2.3,7.11-5.19,5.45-10.82-1.83-6.18-4.77-13.22,4.2-16.54,6.17-2.28,9.63,1.36,12.56,12.3,2.13,7.96,4.55,15.86,5.05,24.14.56,9.33-4.86,13.38-13.23,9.36-3.72-1.78-6.5-.85-9.65.4-21.98,8.69-43.26,18.77-63.47,32.31v-.02Z"/>
  <path d="M1039.43,424.56c-1.21-5.34-2.2-10.03-3.27-15.14-8.51.99-15.76,5.37-23.97,6.36-6.57.79-11.96-.17-13.15-7.15-1.19-7,4.23-8.91,10.06-9.99,10.82-1.99,20.51-6.68,29.44-13.03,3.54-2.52,7.2-4.95,11.76-2.58,4.94,2.56,4.77,7.18,4.7,11.86-.14,8.25-.21,16.47,1.72,24.62,3.5,14.82,12.9,23.04,28.02,24.09,2.56.18,5.12.31,7.66.57,10.99,1.14,17.03,13.61,11.11,22.9-3.29,5.16-10.47,6-13.43.65-2.83-5.11-6.64-6.01-11.57-6.82-20.68-3.37-33.75-15.25-39.08-36.35h0Z"/>
  <path d="M1089.74,272.09c4-7.99,10.1-9.3,17.45-6.96,6.5,2.08,11.35,6.32,15,12,13.67,21.25,3.51,51.56-20.37,59.83-4.97,1.72-7.23,4.62-8.81,9.22-3.9,11.38-9.62,21.81-17.44,31.02-3.67,4.33-7.91,7.08-13.16,2.93-5.28-4.17-4.81-9.13-.79-14.13,8.86-11.02,14.91-23.45,18.15-37.21,1.38-5.88,4.96-8.87,10.92-8.55,16.87.9,22.27-21.17,16.58-31.7-1.76-3.25-4.39-4.91-8.17-5.25-6.27-.57-9.95-3.8-9.35-11.18v-.02Z"/>
  <path d="M876.4,272.5c5-5.02,10.22-8.5,16.87-8.36,5.59.12,10.23,2.76,11.08,8.66.83,5.74-2.56,8.8-8.29,9.69-6.83,1.06-9.02,6.3-9.91,12.24-2.14,14.35,5.14,23.59,19.79,25.22,5.29.59,8.15,3.78,9.18,8.67,2.93,13.86,8.54,26.41,17.57,37.42,3.85,4.69,3.81,9.7-1.19,13.41-5.15,3.81-9.69,1.6-13.23-3.01-7.49-9.75-13.83-20.18-17.37-32.05-1.06-3.56-2.71-5.84-6.32-7.25-27.06-10.49-35.81-40.88-18.19-64.65h0Z"/>
  <path d="M932.83,427.7c4.73-11.33,5.77-22.56,4.84-34-.35-4.34.39-7.92,4.34-10.26,4.16-2.47,7.67-.65,10.94,1.89,7.28,5.65,15.34,9.64,24.21,12.17,5.18,1.47,8.89,4.86,7.17,10.65-1.74,5.87-6.45,7.58-12.25,5.9-4.87-1.41-9.68-3-14.36-4.45-2.96,2.68-2.81,5.93-3.26,8.93-4.1,27.49-25.08,45.01-53.01,44.09-5.08-.17-8.83-2.69-9.37-8.08-.51-5.02,2.48-8.02,7.1-9.2,3.57-.91,7.27-1.27,10.89-1.94,9.67-1.78,17.7-6.03,22.75-15.7h0Z"/>
  <path d="M759.05,358.28c-3.75,3.99-8.05,3.96-12.34,3.95-26.71,0-53.42.02-80.12,0-2.26,0-4.59,0-6.77-.5-4.9-1.13-8.4-4.16-8.29-9.39.12-5.5,3.52-8.82,9.03-9.61,1.95-.28,3.97-.16,5.96-.18,27.55-.18,55.11-.37,82.66-.53,10.04-.06,13.86,5.79,9.88,16.26h-.01Z"/>
  <path d="M663.9,400.13c-7.52.32-12.26-2.49-12.34-9.49-.08-7.16,5.27-9.81,11.54-9.84,29.02-.16,58.04-.15,87.07,0,6.45.03,11.3,3.09,10.97,10.26-.33,7.24-5.42,9.1-11.93,9.08-28.17-.09-56.34-.02-85.31,0h0Z"/>
  <path d="M831.53,506.09c-2.06,6.28-3.74,12-5.82,17.57-1.68,4.47-5.13,7.02-10.01,5.84-5.15-1.24-7.8-5.16-6.7-10.25,6.99-32.31,21.28-58.71,56.4-67.77,1.91-.49,3.87-.95,5.83-1.14,5.51-.53,10.58.16,11.53,6.93.9,6.42-3.16,9.41-8.73,10.47-21.69,4.12-34.87,17.66-42.49,38.35h-.01Z"/>
  <path d="M1109.92,673.37c-2.72,11.04-6.03,12.74-15.57,8.04-3.16-1.55-5.99-1.08-9.07-.48-8.66,1.68-17.35,3-26.22,2.54-6.12-.32-10.98-2.63-10.76-9.42.2-6.35,4.97-8.37,10.76-8.36,2.84,0,5.69.04,8.53-.07,14.77-.55,27.98-4.53,37.63-16.74,3.66-4.63,8.37-7.79,13.77-2.99,5.22,4.64,2.84,9.65-.77,14.32-3.05,3.95-8.06,6.64-8.31,13.15h0Z"/>
  <path d="M892.74,655.5c7.96,7.53,17.41,9.36,27.18,10.08,6.55.48,11.59,2.8,10.63,10.18-.96,7.39-6.82,8.1-13.01,7.51-9.19-.88-17.99-5.19-27.64-2.56-3.26.89-6.64-1.59-7.19-4.78-1.2-6.94-5.82-11.46-9.83-16.56-3.72-4.73-5.12-10.03.5-14.21,5.54-4.12,9.4-.31,12.92,3.88,1.82,2.17,3.97,4.05,6.45,6.46h0Z"/>
  <path d="M812.34,709.69c-.44-6.7-.79-12.65-1.05-18.59-.23-5.32,2.33-8.93,7.54-9.65,4.94-.69,8.42,2.25,9.16,6.96,2.38,15.15,4.09,30.38,1.27,45.68-.87,4.73-3.87,7.68-8.89,7.42-5.49-.29-7.93-4-8.37-9.03-.63-7.34,2.19-14.64.33-22.78h.01Z"/>
  <path d="M1169.71,741.42c-5.54-2.11-7.28-6.11-7.54-10.94-.74-13.33,0-26.62,1.64-39.84.64-5.13,3.83-8.4,9.13-8.24,5.41.16,8.73,3.96,8.28,8.93-1.27,14.14-1.09,28.28-1.48,42.42-.14,5.31-4.08,7.76-10.03,7.67h0Z"/>
  <path d="M805.04,640.16c-.61-6.14-1.34-11.5-1.57-16.89-.26-6.09,2.1-11.18,8.76-11.38,6.23-.18,8.48,4.52,8.99,10.31,1.04,11.9,2.36,23.77,3.47,35.66.53,5.61-1.68,9.72-7.61,10.28-5.89.56-8.93-3.28-9.8-8.59-1.01-6.16-1.45-12.41-2.25-19.39h.01Z"/>
  <path d="M806.92,544.56c9.78-3.18,14.22-.55,13.87,8.43-.47,12.21-1.75,24.37-1.48,36.63.1,4.74-2.5,8.32-7.38,9.07-4.53.7-8.4-1.71-8.96-6.06-2.08-16.04-2.44-32.09,3.95-48.07Z"/>
  <path d="M777.04,906.34c.38-4.16.41-7.58.97-10.92.91-5.43,4.22-8.93,9.85-8.49,5.47.43,7.61,4.64,7.45,9.67-.4,12.43-.93,24.87-1.72,37.28-.33,5.18-3.57,8.6-8.84,8.42-5.24-.18-8.28-3.83-8.5-8.93-.36-8.75-.77-17.55.78-27.04h.01Z"/>
  <path d="M1136.92,622.89c-1.54,4.4-2.53,8.3-4.4,11.73-2.09,3.83-5.75,5.59-10.1,3.86-4.15-1.65-6.68-5.17-5.26-9.44,4.02-12.07,4.56-24.34,3.87-36.87-.27-5,2.96-8.1,7.81-8.3,6.29-.25,9.29,4.13,9.75,9.65.8,9.58,1.07,19.23-1.68,29.37h.01Z"/>
  <path d="M1213.99,928.74c-.09,2.5.06,4.25-.28,5.9-1.05,5.08-4.2,8.38-9.46,7.96-4.8-.39-7.78-3.92-7.96-8.66-.48-12.5-.11-25.02-1.34-37.52-.5-5.1,2.74-8.61,8.28-8.9,5.59-.3,8.29,2.91,9.18,8.07,1.84,10.72,1.64,21.55,1.59,33.16h-.01Z"/>
  <path d="M878.44,780.13c-3.42,7.24-6.42,13.96-9.66,20.57-2.44,4.97-5.97,8.83-12.05,6.05-5.67-2.59-6.39-7.5-4.28-12.95,4.51-11.66,10.57-22.57,16.82-33.35,2.65-4.58,7.12-5.84,11.73-3.32,4.28,2.35,5.36,6.52,3.42,11.02-1.68,3.9-3.76,7.61-5.98,11.97h0Z"/>
  <path d="M1194.02,871.8c-5.57-14.08-6.26-28.59-9.06-42.65-.8-4.02,2.36-7.47,6.87-8.41,4.62-.96,7.99,1.28,9.47,5.33,4.7,12.85,6.24,26.41,7.13,39.9.49,7.41-6.16,9.98-14.42,5.83h.01Z"/>
  <path d="M1174.53,602.26c-3.36-6.06-.59-11.71-.8-17.29-.3-7.93-.48-15.86-.45-23.79.02-5.28,2.86-8.74,8.21-9.01,5.29-.27,8.35,2.53,8.92,8.07,1.23,11.87,1.82,23.72.15,35.61-1.46,10.37-6.83,12.8-16.03,6.41Z"/>
  <path d="M1132.66,807.9c-5.16,1.06-8.57-.61-10.55-4.63-5.12-10.45-10.16-20.94-15.06-31.49-2.49-5.35-3.18-10.97,3.32-13.79,6.32-2.75,9.99,1.15,12.57,6.69,4.55,9.78,9.31,19.46,13.99,29.19,2.71,5.63,2.32,10.45-4.27,14.04h0Z"/>
  <path d="M1170.55,758.62c8.56-5.01,13.33-3.42,15.79,5.18,3.04,10.65,5.67,21.42,8.32,32.17,1.39,5.64.11,10.51-6.04,12.22-6.38,1.77-9.51-2.13-10.99-7.75-2.74-10.45-5.37-20.92-8.1-31.37-.89-3.4-1.29-6.71,1.02-10.45h0Z"/>
  <path d="M814.41,799.6c-1.59,6.41-4.98,10.17-11.1,8.48-6.51-1.8-7.04-6.98-5.89-13.01,2.08-10.89,5.6-21.37,8.56-32.01,1.5-5.38,4.81-8.67,10.53-7.36,6.27,1.43,7.66,6.48,6.34,12-2.51,10.46-5.51,20.81-8.43,31.9h-.01Z"/>
  <path d="M805.67,838.77c-1.78,9.03-3.52,17.32-5.06,25.66-1.1,5.95-3.87,10.72-10.47,9.64-6.57-1.08-8.06-6.55-6.93-12.47,1.95-10.26,4.16-20.48,6.33-30.7,1.35-6.34,4.05-11.98,11.79-10.02,7.48,1.89,6.63,8.02,5.16,13.86-.28,1.1-.46,2.21-.81,4.04h-.01Z"/>
  <path d="M1169.93,637.95c.49-4.7.52-8.71,1.27-12.58.98-4.99,4.04-8.25,9.53-7.65,5.01.55,7.49,4.03,7.54,8.78.12,12.5-2.07,24.81-3.98,37.09-.7,4.5-4.02,7.81-9.06,7.19-5.14-.63-8.35-4.05-8.01-9.32.49-7.61,1.68-15.18,2.72-23.51h-.01Z"/>
  <path d="M873.25,632.66c-7.16,6.62-12.41,6.22-15.78-1.21-5.83-12.85-6.12-26.45-3.81-40.12.8-4.75,4.22-7.48,9.07-7.42,4.21.06,7.7,2.93,7.44,6.81-.94,13.99,1.76,27.58,3.09,41.94h-.01Z"/>
  <path d="M885.42,746.45c-7.21-1.24-9.67-5.41-8.86-11.7,1.38-10.67,3.35-21.25,3.8-32.05.21-4.93,3.23-8.72,8.66-8.76,5.09-.04,8.05,3.72,8.3,8.16.75,13.07-1.16,25.97-4.34,38.63-.8,3.18-3.6,4.98-7.56,5.72h0Z"/>
  <path d="M1163.6,494.43c6.95-5.31,11.73-2.81,14.96,3.49,5.52,10.76,7.88,22.51,9.43,34.36.67,5.07-2.02,8.9-7.38,9.82-5.47.94-8.93-1.96-9.92-7.05-2.08-10.63-4.39-21.15-8.57-31.19-1.27-3.06-.94-6.14,1.48-9.42h0Z"/>
  <path d="M1021.18,138.57c3.74-2.17,7.04-1.65,10.42-.86,8.35,1.96,15.78,6.97,25.23,5.59,5.42-.8,8.56,6.99,6.71,14.9-1.39,5.96-5.47,9.26-11.25,6.86-9.67-4.01-19.3-8.01-29.18-11.53-6.33-2.25-6.78-7.41-1.94-14.96h.01Z"/>
  <path d="M1103.51,746.92c-3.61-1.66-5.61-4.07-6.18-7.3-1.9-10.89-3.63-21.82-3.65-32.9-.01-5.75,2.47-10.27,8.86-10.25,6.4.02,8.79,4.55,8.79,10.31,0,9.42,1.69,18.59,3.2,27.83,1.36,8.29-1.72,11.69-11.02,12.32h0Z"/>
  <path d="M919.32,185.51c-3,3.83-5.39,7.4-8.25,10.54-2.82,3.09-6.47,3.52-10.07,1.25-3.59-2.26-5.11-6-3.35-9.63,6.36-13.13,16.13-23.36,28.82-30.48,3.84-2.16,7.94-.39,10.35,3.45,2.5,3.98,1.43,7.73-1.98,10.67-5.16,4.45-10.93,8.23-15.51,14.2h-.01Z"/>
  <path d="M1119.02,466.79c-3.06-3.71-3.56-7.12-.88-10.52,2.77-3.52,6.56-4.3,10.7-3.17,12.04,3.27,22.23,9.73,30.84,18.63,3.29,3.41,4.2,7.53.58,11.36-3.41,3.61-8.16,4.05-11.53,1.06-8.66-7.67-19.05-12.03-29.7-17.36h0Z"/>
  <path d="M887.76,546.64c-3.23,7.33-6.31,14-9.21,20.76-2.26,5.28-5.69,9.05-11.69,6.66-6.23-2.48-6.8-7.87-4.45-13.5,3.69-8.87,7.58-17.65,11.53-26.41,2.16-4.8,5.68-8.38,11.27-6.3,5.77,2.15,6.77,7.08,4.93,12.64-.62,1.87-1.43,3.69-2.38,6.16h0Z"/>
  <path d="M1178.03,975.26c-.18,4.79.02,8.83-.65,12.73-.87,5.03-4.09,8.39-9.46,7.9-5.25-.48-8.07-3.98-8.11-9.28-.06-9.39.01-18.78.12-28.17.06-5.31,2.69-8.69,8.12-9.14,5.68-.46,8.42,3,8.97,8.13.6,5.64.69,11.34,1,17.83h.01Z"/>
  <path d="M831.56,988.08c-1.33,5.96-4.84,8.53-10.03,7.62-5.17-.91-7.53-4.82-7.59-9.92-.09-8.8-.21-17.6.11-26.39.21-5.76,3.14-10.04,9.4-9.92,6.66.13,8.15,4.94,8.11,10.68-.05,9.08.03,18.17,0,27.93h0Z"/>
  <path d="M897.43,511.34c-1.58,6.36-4.05,11.44-11,9.88-6.84-1.54-6.88-7.4-6.36-13.03.69-7.34,1.4-14.67,2.16-22,.62-6.01,2.1-12.06,9.68-11.33,6.66.64,8.29,6.06,7.78,12.08-.67,7.91-1.41,15.81-2.26,24.4Z"/>
  <path d="M1110.55,228.1c1.37,7.23,1.31,13.79.81,20.3-.38,5.08-3.17,8.85-8.62,8.73-5.85-.13-8.7-3.99-8.39-9.66.4-7.17-.73-14.12-1.97-21.11-1.07-6.03-2.05-12.37,5.77-14.8,5.61-1.74,9.73,2.59,11.57,11.59.29,1.39.46,2.81.83,4.95Z"/>
  <path d="M884.61,218.09c2.04-6.24,5.93-8.52,11.41-6.54,5.12,1.85,6.15,6.31,5.18,11.24-1.7,8.63-3.34,17.24-3.21,26.12.08,5.45-3.12,8.69-8.5,8.4-5.27-.28-7.93-3.57-7.97-9.1-.08-9.94-.41-19.88,3.1-30.13h0Z"/>
  <path d="M1102.8,537.31c7.49-7.74,12.27-7.09,16.21,1.78,3.46,7.77,6.75,15.62,9.98,23.49,2.12,5.17,1.27,9.76-4.21,12.09-5.74,2.44-9.5-.94-11.33-5.85-3.82-10.23-11.3-19.19-10.65-31.51h0Z"/>
  <path d="M1111.99,519.98c-1.35,5.17-4.39,7.19-8.97,6.73-4.65-.47-6.95-3.56-7.72-7.82-1.61-8.9-3.5-17.78-3.47-26.89.02-5.65,2.72-9.48,8.38-9.85,5.47-.36,8.22,3.5,8.84,8.48,1.21,9.55,2.05,19.14,2.94,29.35h0Z"/>
  <path d="M1097.85,202.7c-6.3,4.64-11.15,3.56-14.57-2.66-3.57-6.5-7.83-12.5-12.39-18.33-3.13-4.01-4.19-8.3.04-12.14,4.5-4.09,8.9-2.67,12.78,1.19,6.1,6.08,10.7,13.24,14.56,20.87,1.75,3.46,2.16,7.04-.43,11.06h0Z"/>
  <path d="M949.84,666.55c9.01-3.11,17.85-2.97,26.54-3.77,5.29-.49,9.87,1.79,10.29,7.68.44,6.2-3.54,9.04-9.49,9.53-6.75.55-13.48,1.26-20.23,1.88-4.19.39-8.03-.26-10.16-4.4-2.11-4.11-.99-7.65,3.05-10.92Z"/>
  <path d="M1029.39,680.09c-7.14.02-13.67,0-20.16-.51-5.01-.4-8.99-3.02-8.94-8.46.06-5.78,4-8.7,9.56-8.67,5.09.02,10.18.73,15.27,1.15,4.22.35,7.95,1.69,9.27,6.16,1.3,4.41-.57,7.74-5,10.34h0Z"/>
  <path d="M997.94,814.83c6.58,1.97,9.04,5.96,6.99,11.83-1.65,4.7-5.81,5.99-10.4,5.31-4.81-.72-7.83-3.81-7.67-8.65.21-6.37,4.63-8.52,11.08-8.49Z"/>
  <path d="M412.89,833.89c6.38,3.28,8.72,7.5,4.44,13.24-3.7,4.97-13.41,5.23-17.54.81-4.46-4.77-2.43-12,4.06-14.23,2.74-.94,5.57-.7,9.03.18h.01Z"/>
</svg>